<svg width="32" height="32" viewBox="0 0 32 32" fill="none" xmlns="http://www.w3.org/2000/svg">
<path d="M14.6686 8.85716C13.9623 8.85716 13.2717 8.6477 12.6844 8.25526C12.0971 7.86283 11.6394 7.30506 11.3691 6.65246C11.0987 5.99987 11.028 5.28178 11.1658 4.58899C11.3036 3.8962 11.6438 3.25983 12.1433 2.76036C12.6427 2.26088 13.2791 1.92073 13.9719 1.78292C14.6647 1.64512 15.3828 1.71584 16.0353 1.98615C16.6879 2.25646 17.2457 2.71423 17.6382 3.30155C18.0306 3.88886 18.2401 4.57937 18.2401 5.28573C18.2386 6.23247 17.8618 7.14 17.1924 7.80945C16.5229 8.47889 15.6154 8.85565 14.6686 8.85716ZM14.6686 3.14287C14.2448 3.14287 13.8305 3.26855 13.4781 3.50401C13.1258 3.73947 12.8511 4.07414 12.6889 4.4657C12.5267 4.85725 12.4843 5.28811 12.5669 5.70378C12.6496 6.11946 12.8537 6.50127 13.1534 6.80095C13.4531 7.10064 13.8349 7.30473 14.2505 7.38741C14.6662 7.4701 15.0971 7.42765 15.4887 7.26546C15.8802 7.10328 16.2149 6.82862 16.4503 6.47623C16.6858 6.12384 16.8115 5.70955 16.8115 5.28573C16.81 4.71787 16.5837 4.1737 16.1822 3.77216C15.7806 3.37062 15.2365 3.14438 14.6686 3.14287Z" fill="white"/>
<path d="M26.4286 30H24.8515C24.758 30 24.6654 29.9815 24.579 29.9455C24.4927 29.9096 24.4143 29.8569 24.3484 29.7905C24.2826 29.7241 24.2305 29.6453 24.1952 29.5587C24.16 29.472 24.1422 29.3793 24.1429 29.2857V21.0457H14.3144C14.1249 21.0457 13.9432 20.9705 13.8093 20.8365C13.6753 20.7026 13.6001 20.5209 13.6001 20.3314V16.6457C13.6001 16.4563 13.6753 16.2746 13.8093 16.1407C13.9432 16.0067 14.1249 15.9315 14.3144 15.9315C14.5038 15.9315 14.6855 16.0067 14.8194 16.1407C14.9534 16.2746 15.0287 16.4563 15.0287 16.6457V19.6172H24.8515C25.0409 19.6172 25.2226 19.6924 25.3566 19.8264C25.4905 19.9603 25.5658 20.142 25.5658 20.3314V28.5715H26.4286C26.6181 28.5715 26.7998 28.6467 26.9337 28.7807C27.0677 28.9146 27.1429 29.0963 27.1429 29.2857C27.1429 29.4752 27.0677 29.6569 26.9337 29.7908C26.7998 29.9248 26.6181 30 26.4286 30Z" fill="white"/>
<path d="M14.4286 11.1429C14.2392 11.1429 14.0575 11.0676 13.9235 10.9337C13.7896 10.7997 13.7144 10.618 13.7144 10.4286V8.85143C13.7144 8.66199 13.7896 8.48031 13.9235 8.34636C14.0575 8.2124 14.2392 8.13715 14.4286 8.13715C14.6181 8.13715 14.7998 8.2124 14.9337 8.34636C15.0677 8.48031 15.1429 8.66199 15.1429 8.85143V10.4286C15.1429 10.618 15.0677 10.7997 14.9337 10.9337C14.7998 11.0676 14.6181 11.1429 14.4286 11.1429Z" fill="white"/>
<path d="M21.857 14.7258H17.9084C17.7189 14.7258 17.5373 14.6505 17.4034 14.5165C17.2694 14.3826 17.1941 14.2009 17.1941 14.0115C17.1941 13.822 17.2694 13.6403 17.4034 13.5064C17.5373 13.3724 17.7189 13.2972 17.9084 13.2972H21.857C22.0464 13.2972 22.2281 13.3724 22.3621 13.5064C22.496 13.6403 22.5713 13.822 22.5713 14.0115C22.5713 14.2009 22.496 14.3826 22.3621 14.5165C22.2281 14.6505 22.0464 14.7258 21.857 14.7258Z" fill="white"/>
<path d="M13.4915 30C11.5183 29.9961 9.61014 29.2939 8.10509 28.0178C6.60005 26.7417 5.59524 24.9741 5.26874 23.0281C4.94224 21.0821 5.31512 19.0833 6.32126 17.3859C7.32741 15.6884 8.90184 14.4019 10.7657 13.7543C10.9426 13.6998 11.1336 13.7161 11.2987 13.7997C11.4637 13.8834 11.5899 14.0277 11.6506 14.2025C11.7114 14.3773 11.7019 14.5688 11.6242 14.7367C11.5466 14.9046 11.4068 15.0359 11.2343 15.1028C10.0801 15.501 9.05159 16.1972 8.25311 17.1209C7.45464 18.0446 6.91457 19.163 6.68761 20.3627C6.46066 21.5624 6.55489 22.8008 6.96077 23.9523C7.36666 25.1038 8.06973 26.1276 8.99879 26.9199C9.92785 27.7121 11.0499 28.2447 12.2511 28.4635C13.4523 28.6824 14.69 28.5799 15.8388 28.1662C16.9876 27.7526 18.0066 27.0426 18.7926 26.1083C19.5786 25.1739 20.1036 24.0483 20.3144 22.8457C20.3477 22.6608 20.4532 22.4968 20.6075 22.3896C20.7618 22.2825 20.9523 22.241 21.1372 22.2743C21.3218 22.3104 21.4849 22.4173 21.5917 22.5721C21.6985 22.727 21.7405 22.9174 21.7086 23.1028C21.3707 25.0362 20.3612 26.7882 18.8579 28.05C17.3546 29.3118 15.4541 30.0024 13.4915 30Z" fill="white"/>
<path d="M14.4285 15C15.0597 15 15.5714 14.4883 15.5714 13.8572C15.5714 13.226 15.0597 12.7143 14.4285 12.7143C13.7973 12.7143 13.2856 13.226 13.2856 13.8572C13.2856 14.4883 13.7973 15 14.4285 15Z" fill="white"/>
</svg>
