<svg width="33" height="32" viewBox="0 0 33 32" fill="none" xmlns="http://www.w3.org/2000/svg">
<path fill-rule="evenodd" clip-rule="evenodd" d="M11.7975 3.93115C12.1943 3.93115 12.5159 4.25278 12.5159 4.64953V6.66099H20.2744V4.64953C20.2744 4.25278 20.596 3.93115 20.9928 3.93115C21.3895 3.93115 21.7112 4.25278 21.7112 4.64953V6.66099H27.7455H28.4639V7.37937V14.7422V15.4606H27.7455H5.47582V26.2009H27.0272V22.6715C27.0272 22.2747 27.3488 21.9531 27.7455 21.9531C28.1423 21.9531 28.4639 22.2747 28.4639 22.6715V26.9193V27.6376H27.7455H4.75744H4.03906V26.9193V14.7422V14.0238H4.75744H27.0272V8.09775H21.7112V9.5345C21.7112 9.93125 21.3895 10.2529 20.9928 10.2529C20.596 10.2529 20.2744 9.93125 20.2744 9.5345V8.09775H12.5159V9.5345C12.5159 9.93125 12.1943 10.2529 11.7975 10.2529C11.4008 10.2529 11.0792 9.93125 11.0792 9.5345V8.09775H5.47582V11.3273C5.47582 11.7241 5.15419 12.0457 4.75744 12.0457C4.36069 12.0457 4.03906 11.7241 4.03906 11.3273V7.37937V6.66099H4.75744H11.0792V4.64953C11.0792 4.25278 11.4008 3.93115 11.7975 3.93115Z" fill="#3D3D3D"/>
<circle cx="27.7432" cy="18.8735" r="1.14941" fill="#DD0034"/>
</svg>
