<svg width="20" height="20" viewBox="0 0 20 20" fill="none" xmlns="http://www.w3.org/2000/svg">
<path fill-rule="evenodd" clip-rule="evenodd" d="M1.46783 18.5303C1.17494 18.2374 1.17494 17.7626 1.46783 17.4697L17.4678 1.46967C17.7607 1.17678 18.2356 1.17678 18.5285 1.46967C18.8214 1.76256 18.8214 2.23744 18.5285 2.53033L2.52849 18.5303C2.2356 18.8232 1.76072 18.8232 1.46783 18.5303Z" fill="#3D3D3D"/>
<path fill-rule="evenodd" clip-rule="evenodd" d="M1.46967 1.46978C1.76256 1.17689 2.23744 1.17689 2.53033 1.46978L18.5303 17.4698C18.8232 17.7627 18.8232 18.2375 18.5303 18.5304C18.2374 18.8233 17.7626 18.8233 17.4697 18.5304L1.46967 2.53044C1.17678 2.23755 1.17678 1.76268 1.46967 1.46978Z" fill="#3D3D3D"/>
</svg>
