<svg width="48" height="48" viewBox="0 0 48 48" fill="none" xmlns="http://www.w3.org/2000/svg">
<path fill-rule="evenodd" clip-rule="evenodd" d="M23.4688 7.9285C17.6135 7.9285 12.8668 12.6752 12.8668 18.5305V21.1299V22.2014H11.7954H11.4168C9.48999 22.2014 7.92801 23.7633 7.92801 25.6901C7.92801 27.6169 9.48999 29.1789 11.4168 29.1789H11.7954C12.3871 29.1789 12.8668 29.6586 12.8668 30.2503C12.8668 30.8421 12.3871 31.3218 11.7954 31.3218H11.4168C8.30652 31.3218 5.78516 28.8004 5.78516 25.6901C5.78516 22.8145 7.94054 20.4422 10.7239 20.1007V18.5305C10.7239 11.4917 16.43 5.78564 23.4688 5.78564C30.5076 5.78564 36.2137 11.4917 36.2137 18.5305V20.3571H36.8566C39.8153 20.3571 42.2137 22.7555 42.2137 25.7142C42.2137 28.6729 39.8153 31.0714 36.8566 31.0714H36.2137V40.2856V41.3571H35.1423H30.0536C29.5961 42.8461 28.2099 43.9285 26.5709 43.9285H21.428C19.4161 43.9285 17.7852 42.2975 17.7852 40.2856C17.7852 38.2738 19.4161 36.6428 21.428 36.6428H26.5709C28.2099 36.6428 29.5961 37.7252 30.0536 39.2142H34.0709V29.9999V18.5305C34.0709 12.6752 29.3242 7.9285 23.4688 7.9285ZM36.2137 28.9285V22.4999H36.8566C38.6318 22.4999 40.0709 23.939 40.0709 25.7142C40.0709 27.4894 38.6318 28.9285 36.8566 28.9285H36.2137ZM19.928 40.2856C19.928 39.4572 20.5996 38.7856 21.428 38.7856H26.5709C27.3993 38.7856 28.0709 39.4572 28.0709 40.2856C28.0709 41.1141 27.3993 41.7856 26.5709 41.7856H21.428C20.5996 41.7856 19.928 41.1141 19.928 40.2856Z" fill="#3D3D3D"/>
<circle cx="11.144" cy="25.7143" r="1.71429" fill="#DD0034"/>
</svg>
