<svg width="32" height="32" viewBox="0 0 32 32" fill="none" xmlns="http://www.w3.org/2000/svg">
<path fill-rule="evenodd" clip-rule="evenodd" d="M15.6463 5.28569C11.7427 5.28569 8.57827 8.45015 8.57827 12.3537V14.0867V14.8009H7.86398H7.61159C6.32706 14.8009 5.28575 15.8423 5.28575 17.1268C5.28575 18.4113 6.32706 19.4526 7.61159 19.4526H7.86398C8.25847 19.4526 8.57827 19.7724 8.57827 20.1669C8.57827 20.5614 8.25847 20.8812 7.86398 20.8812H7.61159C5.53809 20.8812 3.85718 19.2003 3.85718 17.1268C3.85718 15.2097 5.2941 13.6281 7.14969 13.4005V12.3537C7.14969 7.66118 10.9538 3.85712 15.6463 3.85712C20.3388 3.85712 24.1429 7.66117 24.1429 12.3537V13.5714H24.5715C26.5439 13.5714 28.1429 15.1704 28.1429 17.1428C28.1429 19.1153 26.5439 20.7143 24.5715 20.7143H24.1429V26.8571V27.5714H23.4286H20.0361C19.7311 28.5641 18.807 29.2857 17.7143 29.2857H14.2857C12.9445 29.2857 11.8572 28.1984 11.8572 26.8571C11.8572 25.5159 12.9445 24.4285 14.2857 24.4285H17.7143C18.807 24.4285 19.7311 25.1502 20.0361 26.1428H22.7143V20V12.3537C22.7143 8.45015 19.5499 5.28569 15.6463 5.28569ZM24.1429 19.2857V15H24.5715C25.7549 15 26.7143 15.9594 26.7143 17.1428C26.7143 18.3263 25.7549 19.2857 24.5715 19.2857H24.1429ZM13.2857 26.8571C13.2857 26.3048 13.7335 25.8571 14.2857 25.8571H17.7143C18.2666 25.8571 18.7143 26.3048 18.7143 26.8571C18.7143 27.4094 18.2666 27.8571 17.7143 27.8571H14.2857C13.7335 27.8571 13.2857 27.4094 13.2857 26.8571Z" fill="white"/>
<circle cx="7.4285" cy="17.1428" r="1.14286" fill="white"/>
</svg>
