<svg width="33" height="32" viewBox="0 0 33 32" fill="none" xmlns="http://www.w3.org/2000/svg">
<path fill-rule="evenodd" clip-rule="evenodd" d="M6.07617 6.4593C8.11704 4.33379 10.9034 4.75623 12.2504 5.34555C12.4771 5.4447 12.6362 5.65405 12.6712 5.89894L13.5284 11.8989C13.557 12.0991 13.4994 12.3019 13.37 12.4572L12.9783 12.9273C12.483 13.5216 12.3745 14.2726 12.685 14.8527C13.5575 16.4824 15.1048 18.5081 17.305 19.617C17.8801 19.9068 18.6383 19.7442 19.2093 19.1732L19.459 18.9234C19.6222 18.7603 19.854 18.686 20.0816 18.7239L26.9387 19.8668C27.2288 19.9152 27.4596 20.1364 27.5202 20.4242C27.7404 21.4699 27.3914 22.764 26.716 23.883C26.028 25.0231 24.9352 26.0964 23.5031 26.6656C22.7358 26.9705 21.9229 27.0088 21.2423 27.0295C19.344 27.0873 15.8891 27.0652 12.7023 24.8743C12.3772 24.6508 12.2949 24.2061 12.5184 23.881C12.7419 23.5559 13.1866 23.4736 13.5116 23.697C16.3012 25.6148 19.3567 25.6577 21.1989 25.6016C21.8889 25.5807 22.4683 25.5396 22.9754 25.338C24.0689 24.9034 24.9367 24.0665 25.493 23.1449C25.9246 22.4297 26.1319 21.7279 26.155 21.1845L20.2092 20.1935C19.3228 21.0727 17.9218 21.5276 16.662 20.8927C14.102 19.6024 12.3744 17.2993 11.4256 15.5269C10.7878 14.3354 11.0898 12.9619 11.8808 12.0127L12.0693 11.7866L11.3166 6.51792C10.1914 6.15341 8.40982 6.09149 7.10664 7.44873C6.29259 8.29654 6.08261 9.62696 6.2762 11.0093C6.5758 13.1486 7.31139 15.8941 8.816 17.8501C9.05652 18.1628 8.99803 18.6113 8.68535 18.8518C8.37267 19.0923 7.9242 19.0338 7.68368 18.7212C5.95701 16.4765 5.17433 13.4417 4.86144 11.2074C4.64095 9.63306 4.82244 7.76504 6.07617 6.4593Z" fill="#3D3D3D"/>
<ellipse cx="10.5335" cy="21.7141" rx="1.14286" ry="1.14286" fill="#DD0034"/>
</svg>
