<svg width="56" height="56" viewBox="0 0 56 56" fill="none" xmlns="http://www.w3.org/2000/svg">
<path d="M0 28C0 12.536 12.536 0 28 0C43.464 0 56 12.536 56 28C56 43.464 43.464 56 28 56C12.536 56 0 43.464 0 28Z" fill="#DD0034"/>
<path fill-rule="evenodd" clip-rule="evenodd" d="M16.6251 39.3739C16.2346 38.9833 16.2346 38.3502 16.6251 37.9596L37.9584 16.6263C38.3489 16.2358 38.9821 16.2358 39.3726 16.6263C39.7631 17.0168 39.7631 17.65 39.3726 18.0405L18.0393 39.3739C17.6488 39.7644 17.0156 39.7644 16.6251 39.3739Z" fill="white"/>
<path fill-rule="evenodd" clip-rule="evenodd" d="M16.6249 16.6263C17.0154 16.2358 17.6486 16.2358 18.0391 16.6263L39.3725 37.9596C39.763 38.3501 39.763 38.9833 39.3725 39.3738C38.9819 39.7644 38.3488 39.7644 37.9583 39.3738L16.6249 18.0405C16.2344 17.65 16.2344 17.0168 16.6249 16.6263Z" fill="white"/>
</svg>
