<svg width="33" height="32" viewBox="0 0 33 32" fill="none" xmlns="http://www.w3.org/2000/svg">
<g clip-path="url(#clip0_4284_12404)">
<g clip-path="url(#clip1_4284_12404)">
<path d="M17.2496 31.7291C16.5088 31.7291 15.9075 31.1278 15.9075 30.387V13.8553C15.9075 11.7844 16.7916 10.5737 17.5363 9.92053C19.5396 8.16023 22.5504 8.49079 22.8849 8.53459C23.6217 8.63018 24.1395 9.30323 24.0479 10.04C23.9523 10.7768 23.2792 11.2866 22.5464 11.2029C21.957 11.1312 20.2325 11.1273 19.3046 11.9477C18.8267 12.3698 18.5957 12.9951 18.5957 13.8593V30.391C18.5957 31.1317 17.9943 31.7331 17.2536 31.7331L17.2496 31.7291Z" fill="white"/>
<path d="M23.1516 18.6066H13.5496C12.8089 18.6066 12.2075 18.0053 12.2075 17.2645C12.2075 16.5237 12.8089 15.9224 13.5496 15.9224H23.1516C23.8924 15.9224 24.4938 16.5237 24.4938 17.2645C24.4938 18.0053 23.8924 18.6066 23.1516 18.6066Z" fill="white"/>
<path d="M26.5926 29.714H2.59362V2.286H30.0216V26.285C30.0216 26.9182 30.5314 27.428 31.1646 27.428C31.7979 27.428 32.3076 26.9182 32.3076 26.285V0H0.307617V32H26.5926C27.2259 32 27.7356 31.4902 27.7356 30.857C27.7356 30.2238 27.2259 29.714 26.5926 29.714V29.714Z" fill="white"/>
<path d="M31.1647 31.9999C31.796 31.9999 32.3077 31.4881 32.3077 30.8569C32.3077 30.2256 31.796 29.7139 31.1647 29.7139C30.5335 29.7139 30.0217 30.2256 30.0217 30.8569C30.0217 31.4881 30.5335 31.9999 31.1647 31.9999Z" fill="white"/>
</g>
</g>
<defs>
<clipPath id="clip0_4284_12404">
<rect width="32" height="32" fill="white" transform="translate(0.307617)"/>
</clipPath>
<clipPath id="clip1_4284_12404">
<rect width="32" height="32" fill="white" transform="translate(0.307617)"/>
</clipPath>
</defs>
</svg>
