<svg width="32" height="32" viewBox="0 0 32 32" fill="none" xmlns="http://www.w3.org/2000/svg">
<path d="M22.5029 28.7428H2.85718V13.9485H9.44005C9.62949 13.9485 9.81115 14.0238 9.9451 14.1578C10.0791 14.2917 10.1543 14.4734 10.1543 14.6628C10.1543 14.8523 10.0791 15.034 9.9451 15.1679C9.81115 15.3019 9.62949 15.3771 9.44005 15.3771H4.29719V27.3371H21.6057L22.2572 25.9485C22.3375 25.7765 22.4829 25.6435 22.6613 25.5786C22.8397 25.5138 23.0366 25.5225 23.2086 25.6028C23.3806 25.6832 23.5137 25.8285 23.5785 26.007C23.6433 26.1854 23.6346 26.3822 23.5543 26.5543L22.5029 28.7428Z" fill="white"/>
<path d="M25.9943 20.3372C25.8742 20.337 25.7561 20.3065 25.6509 20.2486C25.5457 20.1906 25.4568 20.1071 25.3924 20.0057C25.3281 19.9043 25.2903 19.7883 25.2826 19.6685C25.275 19.5486 25.2976 19.4288 25.3485 19.32C25.544 18.8878 25.6288 18.4136 25.5953 17.9404C25.5617 17.4671 25.4108 17.0097 25.1562 16.6094C24.9016 16.209 24.5513 15.8784 24.1369 15.6473C23.7226 15.4162 23.2572 15.292 22.7828 15.2857H16.6114L18.24 10.8686C18.3914 10.4533 18.4444 10.0085 18.3949 9.56928C18.3453 9.13002 18.1945 8.70826 17.9543 8.33717L17.2857 7.35431C17.2453 7.29182 17.1905 7.23996 17.1258 7.20316C17.0612 7.16635 16.9886 7.14568 16.9142 7.14289C16.8403 7.14086 16.7668 7.15575 16.6995 7.18645C16.6321 7.21715 16.5727 7.26285 16.5257 7.32003L9.96569 15.1086C9.84277 15.2519 9.66848 15.3412 9.48037 15.3572C9.29226 15.3732 9.10537 15.3147 8.95997 15.1943C8.88772 15.1343 8.82813 15.0605 8.78464 14.9773C8.74116 14.894 8.71463 14.803 8.70666 14.7094C8.69868 14.6158 8.70942 14.5216 8.73819 14.4322C8.76696 14.3428 8.81322 14.26 8.87428 14.1886L15.4228 6.42288C15.6105 6.19124 15.8501 6.00707 16.1222 5.88532C16.3943 5.76357 16.6913 5.70768 16.9891 5.72215C17.2868 5.73662 17.577 5.82105 17.836 5.96861C18.0951 6.11617 18.3157 6.32271 18.48 6.57146L19.1257 7.55432C19.4891 8.11117 19.7176 8.74513 19.793 9.40579C19.8684 10.0665 19.7886 10.7356 19.56 11.36L18.6628 13.8857H22.7828C23.5002 13.885 24.2061 14.0655 24.835 14.4105C25.4639 14.7555 25.9955 15.2539 26.3803 15.8593C26.7651 16.4647 26.9906 17.1575 27.036 17.8735C27.0814 18.5894 26.9452 19.3051 26.64 19.9543C26.5785 20.0718 26.4855 20.1698 26.3715 20.2374C26.2574 20.305 26.1268 20.3396 25.9943 20.3372Z" fill="white"/>
<path d="M9.28582 28.7429C9.09638 28.7429 8.91468 28.6676 8.78073 28.5337C8.64677 28.3997 8.57153 28.218 8.57153 28.0286V14.6457C8.57153 14.4563 8.64677 14.2746 8.78073 14.1407C8.91468 14.0067 9.09638 13.9315 9.28582 13.9315C9.47526 13.9315 9.65696 14.0067 9.79091 14.1407C9.92487 14.2746 10.0001 14.4563 10.0001 14.6457V28.0458C9.9971 28.2327 9.92034 28.4108 9.78655 28.5414C9.65276 28.672 9.47277 28.7444 9.28582 28.7429Z" fill="white"/>
<path d="M28.6114 11.8172C28.3889 11.8171 28.1696 11.7642 27.9714 11.6629L25.84 10.52L23.7143 11.6629C23.4881 11.7812 23.2333 11.8337 22.9788 11.8145C22.7242 11.7953 22.4802 11.7052 22.2743 11.5543C22.0618 11.4089 21.8951 11.2058 21.7939 10.969C21.6927 10.7321 21.6611 10.4713 21.7029 10.2172L22.1086 7.85147L20.3943 6.17147C20.2107 5.99316 20.0811 5.76666 20.0204 5.51799C19.9598 5.26932 19.9705 5.00859 20.0515 4.76576C20.129 4.52302 20.2738 4.30723 20.469 4.14339C20.6642 3.97955 20.9018 3.87438 21.1543 3.84004L23.5372 3.49146L24.6 1.33718C24.7126 1.10812 24.8871 0.915177 25.1037 0.780247C25.3204 0.645317 25.5705 0.573792 25.8257 0.573792C26.081 0.573792 26.3311 0.645317 26.5477 0.780247C26.7644 0.915177 26.9389 1.10812 27.0515 1.33718L28.1143 3.49146L30.4972 3.84004C30.7497 3.87438 30.9873 3.97955 31.1825 4.14339C31.3776 4.30723 31.5224 4.52302 31.6 4.76576C31.6795 5.00918 31.6891 5.27006 31.6274 5.51862C31.5658 5.76718 31.4355 5.9934 31.2514 6.17147L29.5372 7.85147L29.9429 10.2229C29.9761 10.4185 29.9663 10.619 29.9141 10.8104C29.862 11.0018 29.7688 11.1796 29.641 11.3313C29.5132 11.483 29.3538 11.6051 29.1741 11.689C28.9943 11.7729 28.7984 11.8167 28.6 11.8172H28.6114ZM21.5029 5.23431L23.6686 7.34861L23.16 10.3372L25.84 8.92576L28.5257 10.3372L28.0115 7.34861L30.1829 5.23431L27.1829 4.80004L25.8572 2.08003L24.52 4.80004L21.5029 5.23431Z" fill="white"/>
<path d="M24.7144 24.1428C25.3456 24.1428 25.8572 23.6312 25.8572 23C25.8572 22.3688 25.3456 21.8571 24.7144 21.8571C24.0832 21.8571 23.5715 22.3688 23.5715 23C23.5715 23.6312 24.0832 24.1428 24.7144 24.1428Z" fill="white"/>
</svg>
