<svg width="65" height="64" viewBox="0 0 65 64" fill="none" xmlns="http://www.w3.org/2000/svg">
<rect x="0.5" width="64" height="64" rx="32" fill="#030303" fill-opacity="0.5"/>
<path fill-rule="evenodd" clip-rule="evenodd" d="M21.834 20.333H20.834V21.333V27.9997C20.834 28.552 21.2817 28.9997 21.834 28.9997C22.3863 28.9997 22.834 28.552 22.834 27.9997V22.333H28.5007C29.0529 22.333 29.5007 21.8853 29.5007 21.333C29.5007 20.7807 29.0529 20.333 28.5007 20.333H21.834ZM43.1673 43.6663H44.1673V42.6663V35.9997C44.1673 35.4474 43.7196 34.9997 43.1673 34.9997C42.615 34.9997 42.1673 35.4474 42.1673 35.9997V41.6663H36.5007C35.9484 41.6663 35.5007 42.1141 35.5007 42.6663C35.5007 43.2186 35.9484 43.6663 36.5007 43.6663H43.1673ZM20.834 43.6663V42.6663V35.9997C20.834 35.4474 21.2817 34.9997 21.834 34.9997C22.3863 34.9997 22.834 35.4474 22.834 35.9997L22.834 41.6663H28.5007C29.0529 41.6663 29.5007 42.1141 29.5007 42.6663C29.5007 43.2186 29.0529 43.6663 28.5007 43.6663H21.834H20.834ZM44.1673 21.333V20.333H43.1673H36.5007C35.9484 20.333 35.5007 20.7807 35.5007 21.333C35.5007 21.8853 35.9484 22.333 36.5007 22.333L42.1673 22.333V27.9997C42.1673 28.552 42.615 28.9997 43.1673 28.9997C43.7196 28.9997 44.1673 28.552 44.1673 27.9997V21.333Z" fill="white"/>
</svg>
