<svg width="81" height="80" viewBox="0 0 81 80" fill="none" xmlns="http://www.w3.org/2000/svg">
<rect x="0.5" width="80" height="80" rx="4" fill="#DD0034"/>
<circle cx="26.7858" cy="38.2856" r="1.71429" fill="white"/>
<path fill-rule="evenodd" clip-rule="evenodd" d="M25.7144 21.1427C25.7144 20.551 26.1941 20.0713 26.7858 20.0713H54.2144C54.8061 20.0713 55.2858 20.551 55.2858 21.1427V58.857C55.2858 59.4487 54.8061 59.9284 54.2144 59.9284H43.9798C43.3881 59.9284 42.9084 59.4487 42.9084 58.857V52.6289H37.6824V58.857C37.6824 59.4487 37.2027 59.9284 36.6109 59.9284H26.7858C26.1941 59.9284 25.7144 59.4487 25.7144 58.857V43.4008C25.7144 42.809 26.1941 42.3294 26.7858 42.3294C27.3775 42.3294 27.8572 42.809 27.8572 43.4008V57.7856H35.5395V51.5575C35.5395 50.9657 36.0192 50.486 36.6109 50.486H43.9798C44.5715 50.486 45.0512 50.9657 45.0512 51.5575V57.7856H53.1429V22.2141H27.8572V31.6865C27.8572 32.2782 27.3775 32.7579 26.7858 32.7579C26.1941 32.7579 25.7144 32.2782 25.7144 31.6865V21.1427Z" fill="white"/>
<path fill-rule="evenodd" clip-rule="evenodd" d="M38.5715 28.857C38.5715 28.2653 39.0512 27.7856 39.6429 27.7856H41.3572C41.9489 27.7856 42.4286 28.2653 42.4286 28.857C42.4286 29.4487 41.9489 29.9284 41.3572 29.9284H39.6429C39.0512 29.9284 38.5715 29.4487 38.5715 28.857Z" fill="white"/>
<path fill-rule="evenodd" clip-rule="evenodd" d="M31.7144 28.857C31.7144 28.2653 32.194 27.7856 32.7858 27.7856H34.5001C35.0918 27.7856 35.5715 28.2653 35.5715 28.857C35.5715 29.4487 35.0918 29.9284 34.5001 29.9284H32.7858C32.194 29.9284 31.7144 29.4487 31.7144 28.857Z" fill="white"/>
<path fill-rule="evenodd" clip-rule="evenodd" d="M38.5715 36.5713C38.5715 35.9796 39.0512 35.4999 39.6429 35.4999H41.3572C41.9489 35.4999 42.4286 35.9796 42.4286 36.5713C42.4286 37.163 41.9489 37.6427 41.3572 37.6427H39.6429C39.0512 37.6427 38.5715 37.163 38.5715 36.5713Z" fill="white"/>
<path fill-rule="evenodd" clip-rule="evenodd" d="M31.7144 36.5713C31.7144 35.9796 32.194 35.4999 32.7858 35.4999H34.5001C35.0918 35.4999 35.5715 35.9796 35.5715 36.5713C35.5715 37.163 35.0918 37.6427 34.5001 37.6427H32.7858C32.194 37.6427 31.7144 37.163 31.7144 36.5713Z" fill="white"/>
<path fill-rule="evenodd" clip-rule="evenodd" d="M38.5715 44.2856C38.5715 43.6938 39.0512 43.2141 39.6429 43.2141H41.3572C41.9489 43.2141 42.4286 43.6938 42.4286 44.2856C42.4286 44.8773 41.9489 45.357 41.3572 45.357H39.6429C39.0512 45.357 38.5715 44.8773 38.5715 44.2856Z" fill="white"/>
<path fill-rule="evenodd" clip-rule="evenodd" d="M31.7144 44.2856C31.7144 43.6938 32.194 43.2141 32.7858 43.2141H34.5001C35.0918 43.2141 35.5715 43.6938 35.5715 44.2856C35.5715 44.8773 35.0918 45.357 34.5001 45.357H32.7858C32.194 45.357 31.7144 44.8773 31.7144 44.2856Z" fill="white"/>
<path fill-rule="evenodd" clip-rule="evenodd" d="M45.4286 28.857C45.4286 28.2653 45.9083 27.7856 46.5001 27.7856H48.2144C48.8061 27.7856 49.2858 28.2653 49.2858 28.857C49.2858 29.4487 48.8061 29.9284 48.2144 29.9284H46.5001C45.9083 29.9284 45.4286 29.4487 45.4286 28.857Z" fill="white"/>
<path fill-rule="evenodd" clip-rule="evenodd" d="M45.4286 36.5713C45.4286 35.9796 45.9083 35.4999 46.5001 35.4999H48.2144C48.8061 35.4999 49.2858 35.9796 49.2858 36.5713C49.2858 37.163 48.8061 37.6427 48.2144 37.6427H46.5001C45.9083 37.6427 45.4286 37.163 45.4286 36.5713Z" fill="white"/>
<path fill-rule="evenodd" clip-rule="evenodd" d="M45.4286 44.2856C45.4286 43.6938 45.9083 43.2141 46.5001 43.2141H48.2144C48.8061 43.2141 49.2858 43.6938 49.2858 44.2856C49.2858 44.8773 48.8061 45.357 48.2144 45.357H46.5001C45.9083 45.357 45.4286 44.8773 45.4286 44.2856Z" fill="white"/>
</svg>
