<svg width="80" height="80" viewBox="0 0 80 80" fill="none" xmlns="http://www.w3.org/2000/svg">
<rect width="80" height="80" rx="4" fill="#DD0034"/>
<circle cx="54.5717" cy="55.4286" r="1.71429" fill="white"/>
<path fill-rule="evenodd" clip-rule="evenodd" d="M23.9277 21.7857H56.0706V49C56.0706 49.5917 55.5909 50.0714 54.9992 50.0714C54.4074 50.0714 53.9277 49.5917 53.9277 49V23.9286H26.0706V56.0714H48.142C48.7338 56.0714 49.2134 56.5511 49.2134 57.1429C49.2134 57.7346 48.7338 58.2143 48.142 58.2143H23.9277V21.7857ZM32.0706 31.4286C32.0706 30.8368 32.5503 30.3572 33.142 30.3572H46.4277C47.0195 30.3572 47.4992 30.8368 47.4992 31.4286C47.4992 32.0203 47.0195 32.5 46.4277 32.5H33.142C32.5503 32.5 32.0706 32.0203 32.0706 31.4286ZM32.0706 36.5714C32.0706 35.9797 32.5503 35.5 33.142 35.5H46.4277C47.0195 35.5 47.4992 35.9797 47.4992 36.5714C47.4992 37.1632 47.0195 37.6429 46.4277 37.6429H33.142C32.5503 37.6429 32.0706 37.1632 32.0706 36.5714ZM32.0706 41.7143C32.0706 41.1226 32.5503 40.6429 33.142 40.6429H39.9992C40.5909 40.6429 41.0706 41.1226 41.0706 41.7143C41.0706 42.306 40.5909 42.7857 39.9992 42.7857H33.142C32.5503 42.7857 32.0706 42.306 32.0706 41.7143ZM50.1854 43.0995C50.6038 43.518 50.6038 44.1963 50.1854 44.6148L44.2849 50.5152L40.5273 46.7576C40.1088 46.3392 40.1088 45.6608 40.5273 45.2424C40.9457 44.824 41.6241 44.824 42.0425 45.2424L44.2849 47.4848L48.6701 43.0995C49.0885 42.6811 49.7669 42.6811 50.1854 43.0995Z" fill="white"/>
</svg>
