<svg width="81" height="81" viewBox="0 0 81 81" fill="none" xmlns="http://www.w3.org/2000/svg">
<rect x="0.5" y="0.230469" width="80" height="80" rx="4" fill="#DD0034"/>
<path d="M61.26 33.5276L41.3829 24.0476C41.2404 23.9821 41.0854 23.9482 40.9286 23.9482C40.7718 23.9482 40.6168 23.9821 40.4743 24.0476L19.7057 33.519C19.5246 33.6067 19.3718 33.7437 19.2649 33.9143C19.158 34.0848 19.1013 34.282 19.1013 34.4833C19.1013 34.6846 19.158 34.8818 19.2649 35.0523C19.3718 35.2228 19.5246 35.3598 19.7057 35.4476L26.9314 39.1419V52.059L27.5143 52.359C31.5098 54.4568 35.9369 55.601 40.4486 55.7019H40.8857C41.3743 55.7019 41.8629 55.7019 42.3514 55.7019C46.0841 55.5175 49.7457 54.6123 53.1343 53.0361L55.14 52.1276V44.0876C55.14 43.8034 55.0271 43.5309 54.8262 43.33C54.6253 43.129 54.3527 43.0161 54.0686 43.0161C53.7844 43.0161 53.5119 43.129 53.311 43.33C53.11 43.5309 52.9972 43.8034 52.9972 44.0876V50.7304L52.2429 51.0733C49.0834 52.5396 45.6681 53.3752 42.1886 53.5333C41.5972 53.5333 40.9972 53.5333 40.4057 53.5333C36.4548 53.4429 32.572 52.4861 29.0314 50.7304V40.2304L40.4743 46.0504C40.5343 46.0806 40.5975 46.1036 40.6629 46.119C40.7512 46.1279 40.8402 46.1279 40.9286 46.119C41.0196 46.1313 41.1119 46.1313 41.2029 46.119L41.4 46.0418L49.6457 41.6447C49.8969 41.5117 50.085 41.2844 50.1686 41.0127C50.2522 40.7411 50.2244 40.4473 50.0914 40.1961C49.9585 39.9449 49.7311 39.7569 49.4595 39.6733C49.1878 39.5897 48.8941 39.6174 48.6429 39.7504L40.9114 43.8733L22.6114 34.5476L40.9114 26.199L58.4229 34.5476L57.8057 34.8819C57.6813 34.9477 57.5712 35.0374 57.4814 35.1458C57.3917 35.2543 57.3242 35.3793 57.2829 35.5138C57.2415 35.6483 57.227 35.7897 57.2402 35.9298C57.2535 36.0699 57.2942 36.206 57.36 36.3304C57.4259 36.4548 57.5156 36.565 57.624 36.6547C57.7324 36.7444 57.8575 36.8119 57.992 36.8533C58.2636 36.9369 58.5574 36.9091 58.8086 36.7761L61.3029 35.439C61.4899 35.3511 61.6468 35.2098 61.7536 35.0328C61.8604 34.8558 61.9123 34.6512 61.9029 34.4447C61.8917 34.2471 61.8256 34.0566 61.712 33.8946C61.5985 33.7326 61.4419 33.6054 61.26 33.5276Z" fill="white"/>
<path d="M54.0256 40.479C55.0245 40.479 55.8342 39.6692 55.8342 38.6704C55.8342 37.6715 55.0245 36.8618 54.0256 36.8618C53.0268 36.8618 52.217 37.6715 52.217 38.6704C52.217 39.6692 53.0268 40.479 54.0256 40.479Z" fill="white"/>
</svg>
