<svg width="33" height="32" viewBox="0 0 33 32" fill="none" xmlns="http://www.w3.org/2000/svg">
<g clip-path="url(#clip0_4284_12440)">
<g clip-path="url(#clip1_4284_12440)">
<path d="M26.5926 29.714H2.59362V2.286H30.0216V26.285C30.0216 26.9182 30.5314 27.428 31.1646 27.428C31.7978 27.428 32.3076 26.9182 32.3076 26.285V0H0.307617V32H26.5926C27.2259 32 27.7356 31.4902 27.7356 30.857C27.7356 30.2238 27.2259 29.714 26.5926 29.714Z" fill="white"/>
<path d="M31.1647 31.9999C31.796 31.9999 32.3077 31.4881 32.3077 30.8569C32.3077 30.2256 31.796 29.7139 31.1647 29.7139C30.5335 29.7139 30.0217 30.2256 30.0217 30.8569C30.0217 31.4881 30.5335 31.9999 31.1647 31.9999Z" fill="white"/>
<path d="M24.3226 9.51434C25.1342 9.51434 25.7922 8.85639 25.7922 8.04477C25.7922 7.23314 25.1342 6.5752 24.3226 6.5752C23.511 6.5752 22.853 7.23314 22.853 8.04477C22.853 8.85639 23.511 9.51434 24.3226 9.51434Z" fill="white"/>
<path d="M9.54726 16.0178C9.52337 12.2981 12.5063 9.26334 16.2101 9.23945C20.0135 9.21157 23.092 12.2662 23.0681 16.0377C23.0442 19.7296 19.9896 22.7683 16.3057 22.7603C12.6377 22.7563 9.57116 19.6937 9.54726 16.0178ZM20.7264 15.8983C20.6706 13.461 18.5837 11.4577 16.1822 11.5454C13.7768 11.633 11.7735 13.7716 11.8691 16.1492C11.9647 18.5069 13.9719 20.4146 16.3216 20.3946C18.755 20.3707 20.7741 18.3038 20.7224 15.8983H20.7264Z" fill="white"/>
</g>
</g>
<defs>
<clipPath id="clip0_4284_12440">
<rect width="32" height="32" fill="white" transform="translate(0.307617)"/>
</clipPath>
<clipPath id="clip1_4284_12440">
<rect width="32" height="32" fill="white" transform="translate(0.307617)"/>
</clipPath>
</defs>
</svg>
