<svg width="25" height="25" viewBox="0 0 25 25" fill="none" xmlns="http://www.w3.org/2000/svg">
<path fill-rule="evenodd" clip-rule="evenodd" d="M20.3925 12.9706C20.6325 11.7559 20.631 10.5058 20.3879 9.29173C20.1448 8.07764 19.6649 6.92333 18.9758 5.89469C18.2866 4.86605 17.4015 3.98323 16.3711 3.29663C15.3408 2.61003 14.1853 2.1331 12.9706 1.89308C11.7559 1.65305 10.5058 1.65462 9.29173 1.89771C8.07764 2.14079 6.92333 2.62063 5.89469 3.30982C4.86605 3.99901 3.98323 4.88405 3.29663 5.91443C2.61003 6.9448 2.1331 8.10032 1.89308 9.31501C1.65305 10.5297 1.65462 11.7798 1.89771 12.9938C2.14079 14.2079 2.62063 15.3622 3.30982 16.3909C3.99901 17.4195 4.88405 18.3023 5.91443 18.9889C6.9448 19.6755 8.10032 20.1525 9.31501 20.3925C10.5297 20.6325 11.7798 20.631 12.9938 20.3879C14.2079 20.1448 15.3622 19.6649 16.3909 18.9758C17.4195 18.2866 18.3023 17.4015 18.9889 16.3711C19.6755 15.3408 20.1525 14.1853 20.3925 12.9706ZM21.7886 9.01126C22.0686 10.4093 22.0704 11.8488 21.794 13.2475C21.5176 14.6462 20.9684 15.9768 20.1778 17.1633C19.3871 18.3498 18.3705 19.369 17.1861 20.1626C16.0016 20.9562 14.6723 21.5087 13.2743 21.7886C11.8763 22.0686 10.4368 22.0704 9.03807 21.794C7.63934 21.5176 6.30874 20.9684 5.12225 20.1778C3.93576 19.3871 2.91662 18.3705 2.123 17.186C1.32939 16.0016 0.776854 14.6723 0.496936 13.2743C0.21702 11.8763 0.215209 10.4368 0.491604 9.03807C0.768 7.63934 1.31719 6.30874 2.10782 5.12225C2.89845 3.93576 3.91503 2.91662 5.09952 2.123C6.28402 1.32939 7.61323 0.776852 9.01126 0.496936C10.4093 0.21702 11.8488 0.215208 13.2475 0.491604C14.6462 0.767999 15.9768 1.31719 17.1633 2.10782C18.3498 2.89845 19.369 3.91503 20.1626 5.09952C20.9562 6.28402 21.5087 7.61323 21.7886 9.01126Z" fill="#3D3D3D"/>
<path fill-rule="evenodd" clip-rule="evenodd" d="M17.4714 18.0909C17.7368 17.799 18.1885 17.7775 18.4804 18.0428L24.7661 23.7571C25.058 24.0225 25.0795 24.4742 24.8142 24.7661C24.5488 25.058 24.0971 25.0795 23.8052 24.8142L17.5195 19.0999C17.2276 18.8345 17.206 18.3828 17.4714 18.0909Z" fill="#3D3D3D"/>
</svg>
