<svg width="33" height="32" viewBox="0 0 33 32" fill="none" xmlns="http://www.w3.org/2000/svg">
<g clip-path="url(#clip0_4284_12419)">
<g clip-path="url(#clip1_4284_12419)">
<path d="M23.7581 19.948C23.7581 20.8236 23.766 21.7031 23.7581 22.5787C23.7502 23.3156 23.4015 23.791 22.629 23.7791C21.8525 23.7672 21.5434 23.2482 21.5236 22.5351C21.4999 21.5961 21.5038 20.6572 21.4959 19.7143C21.4919 19.1517 21.5197 18.5851 21.48 18.0225C21.3691 16.517 20.4658 15.5384 19.198 15.5186C17.9302 15.4988 16.9675 16.4655 16.8843 17.9591C16.8209 19.0843 16.8645 20.2134 16.8565 21.3426C16.8565 21.7823 16.8645 22.2221 16.809 22.654C16.7298 23.2601 16.4524 23.7435 15.7631 23.7791C14.9747 23.8148 14.6736 23.2918 14.5428 22.6183C14.5072 22.4361 14.5032 22.2459 14.5032 22.0557C14.5032 20.677 14.4438 19.2943 14.5151 17.9195C14.6617 15.0274 16.6228 13.1494 19.3129 13.2326C21.9 13.3158 23.6987 15.2611 23.766 18.0622C23.7819 18.6881 23.766 19.3141 23.766 19.9401H23.7581V19.948Z" fill="white"/>
<path d="M11.3018 18.7122C11.3018 19.7106 11.3018 20.709 11.3018 21.7074C11.3018 22.0204 11.3137 22.3333 11.2741 22.6424C11.1829 23.3476 10.8066 23.827 10.0538 23.7834C9.28125 23.7398 9.00788 23.1574 9.00392 22.4799C8.98411 19.8611 8.98015 17.2423 8.99204 14.6236C8.99204 13.9461 9.23371 13.3439 10.0182 13.3043C10.862 13.2646 11.2622 13.8153 11.282 14.6037C11.3137 15.9746 11.2899 17.3493 11.2899 18.7201H11.3018V18.7122Z" fill="white"/>
<path d="M11.607 9.69889C11.5911 10.4556 10.9255 11.0816 10.1292 11.0855C9.22192 11.0855 8.61179 10.4318 8.67914 9.52457C8.73857 8.73219 9.40416 8.16168 10.1965 8.21319C10.9453 8.26469 11.6188 8.97387 11.603 9.69889H11.607Z" fill="white"/>
<path d="M26.4559 29.5595H2.58173V2.27411H29.8671V26.1483C29.8671 26.7783 30.3742 27.2854 31.0042 27.2854C31.6341 27.2854 32.1412 26.7783 32.1412 26.1483V0H0.307617V31.8336H26.4559C27.0859 31.8336 27.593 31.3265 27.593 30.6966C27.593 30.0666 27.0859 29.5595 26.4559 29.5595Z" fill="white"/>
<path d="M31.0042 31.8337C31.6322 31.8337 32.1413 31.3246 32.1413 30.6966C32.1413 30.0686 31.6322 29.5596 31.0042 29.5596C30.3763 29.5596 29.8672 30.0686 29.8672 30.6966C29.8672 31.3246 30.3763 31.8337 31.0042 31.8337Z" fill="white"/>
<path d="M31.1705 31.4533C31.7985 31.4533 32.3076 30.9442 32.3076 30.3163C32.3076 29.6883 31.7985 29.1792 31.1705 29.1792C30.5425 29.1792 30.0334 29.6883 30.0334 30.3163C30.0334 30.9442 30.5425 31.4533 31.1705 31.4533Z" fill="white"/>
</g>
</g>
<defs>
<clipPath id="clip0_4284_12419">
<rect width="32" height="32" fill="white" transform="translate(0.307617)"/>
</clipPath>
<clipPath id="clip1_4284_12419">
<rect width="32" height="31.8336" fill="white" transform="translate(0.307617)"/>
</clipPath>
</defs>
</svg>
