<svg width="33" height="32" viewBox="0 0 33 32" fill="none" xmlns="http://www.w3.org/2000/svg">
<path fill-rule="evenodd" clip-rule="evenodd" d="M22.3643 5.37878C20.434 3.98715 18.1472 3.45966 16.7725 3.50262L16.7613 3.50297H16.75C13.2841 3.50297 11.0503 4.84521 9.66746 6.57381C8.26289 8.32952 7.69848 10.534 7.69848 12.2672C7.69848 14.357 8.66277 16.1274 9.29219 17.0268L9.29272 17.0275L14.7514 24.7846C14.9797 25.109 14.9018 25.5572 14.5773 25.7855C14.2528 26.0138 13.8047 25.9359 13.5764 25.6114L8.11671 17.8529L8.11569 17.8515C7.40413 16.835 6.26172 14.7744 6.26172 12.2672C6.26172 10.2648 6.90418 7.72797 8.54554 5.67628C10.207 3.59944 12.8548 2.0691 16.739 2.06622C18.4296 2.01654 21.0211 2.6392 23.2045 4.21332C25.4255 5.81446 27.2384 8.41444 27.2384 12.2672V12.2971L27.2359 12.3268L26.52 12.2672C27.2359 12.3268 27.2359 12.3268 27.2359 12.3268L27.2357 12.3289L27.2354 12.3323L27.2345 12.3427C27.2341 12.3468 27.2336 12.3517 27.2331 12.3573C27.2325 12.3634 27.2318 12.3704 27.2311 12.3782C27.228 12.4082 27.2235 12.4509 27.2171 12.505C27.2042 12.6133 27.1838 12.7679 27.153 12.9602C27.0913 13.3444 26.9875 13.8819 26.8179 14.5036C26.4821 15.7351 25.8775 17.337 24.7983 18.7296L19.9224 25.6132C19.6931 25.937 19.2447 26.0135 18.921 25.7842C18.5972 25.5549 18.5207 25.1065 18.75 24.7828L23.6442 17.8732L23.6541 17.8605C24.58 16.67 25.1222 15.2608 25.4318 14.1255C25.5855 13.5619 25.6793 13.0757 25.7344 12.7325C25.7619 12.5612 25.7796 12.4262 25.7903 12.3358C25.7957 12.2906 25.7993 12.2566 25.8015 12.2349L25.8016 12.234C25.7914 8.92159 24.2558 6.74238 22.3643 5.37878Z" fill="#3D3D3D"/>
<path fill-rule="evenodd" clip-rule="evenodd" d="M16.75 10.112C15.5598 10.112 14.5949 11.0769 14.5949 12.2672C14.5949 13.4574 15.5598 14.4223 16.75 14.4223C17.9403 14.4223 18.9052 13.4574 18.9052 12.2672C18.9052 11.0769 17.9403 10.112 16.75 10.112ZM13.1581 12.2672C13.1581 10.2834 14.7663 8.67528 16.75 8.67528C18.7338 8.67528 20.3419 10.2834 20.3419 12.2672C20.3419 14.2509 18.7338 15.8591 16.75 15.8591C14.7663 15.8591 13.1581 14.2509 13.1581 12.2672Z" fill="#3D3D3D"/>
<circle cx="16.751" cy="28.3589" r="1.14941" fill="#DD0034"/>
</svg>
