<svg width="80" height="32" viewBox="0 0 80 32" fill="none" xmlns="http://www.w3.org/2000/svg">
<path fill-rule="evenodd" clip-rule="evenodd" d="M20.2881 5.86538C22.5295 5.86538 24.3459 7.40385 24.3459 9.28975C24.3459 11.1756 22.5295 12.7154 20.2881 12.7154C18.5732 12.7154 17.1099 11.818 16.5152 10.5474C16.2555 11.714 15.682 12.7808 14.8611 13.6244C16.1559 14.818 17.9785 15.5641 19.9994 15.5641C23.9296 15.5641 27.1138 12.7526 27.1138 9.28206C27.1138 5.81154 23.9296 3 19.9994 3C17.9785 3 16.1584 3.74487 14.8611 4.93975C15.682 5.78334 16.2555 6.85008 16.5152 8.01667C17.1099 6.74744 18.5732 5.84872 20.2881 5.84872V5.86538ZM24.3459 22.7166C24.3459 20.8294 22.5295 19.291 20.2881 19.291V19.2794C18.5732 19.2794 17.1099 20.1795 16.5152 21.4487C16.2568 20.2793 15.6833 19.2097 14.8611 18.3641C16.1584 17.1705 17.9785 16.4256 19.9994 16.4256C23.9296 16.4256 27.1138 19.2371 27.1138 22.7077C27.1138 26.1782 23.9296 28.9897 19.9994 28.9897C17.9785 28.9897 16.1559 28.2448 14.8611 27.05C15.682 26.2064 16.2555 25.1396 16.5152 23.973C17.1099 25.2436 18.5732 26.141 20.2881 26.141C22.5295 26.141 24.3459 24.6038 24.3459 22.7166ZM4.768 22.7167C4.768 24.6039 6.58565 26.1423 8.82705 26.1423V26.1526C10.5406 26.1526 12.0039 25.2539 12.5986 23.9846C12.8588 25.1513 13.4327 26.218 14.254 27.0616C12.9555 28.2552 11.1366 29 9.11448 29C5.18553 29 2 26.1872 2 22.718C2 19.2487 5.18553 16.4359 9.11448 16.4359C11.1366 16.4359 12.9592 17.1821 14.254 18.3757C13.4317 19.2209 12.8578 20.29 12.5986 21.459C12.0039 20.1885 10.5406 19.291 8.82705 19.291C6.58565 19.291 4.768 20.8295 4.768 22.7167ZM4.768 9.2892C4.768 11.1764 6.58565 12.7148 8.82705 12.7148V12.7302C10.5406 12.7302 12.0039 11.8315 12.5986 10.5623C12.8588 11.729 13.4327 12.7957 14.254 13.6392C12.9555 14.8341 11.1366 15.5789 9.11448 15.5789C5.18553 15.5789 2 12.7674 2 9.29689C2 5.82637 5.18553 3.01483 9.11448 3.01483C11.1366 3.01483 12.9592 3.7597 14.254 4.95458C13.4323 5.79776 12.8583 6.86461 12.5986 8.0315C12.0039 6.76227 10.5406 5.86483 8.82705 5.86483C6.58565 5.86483 4.768 7.40201 4.768 9.2892Z" fill="white"/>
<path fill-rule="evenodd" clip-rule="evenodd" d="M39.3778 28.312C38.1921 28.3195 37.0165 28.0851 35.9184 27.6222C34.8829 27.1934 33.9393 26.5573 33.1418 25.7504C32.3573 24.9395 31.7361 23.9756 31.3142 22.9145C30.8019 21.6182 30.5777 20.2192 30.6584 18.8212C30.739 17.4231 31.1224 16.0617 31.7801 14.8376C32.5239 13.4915 33.6108 12.3828 34.9222 11.6325C36.2512 10.8903 37.7337 10.4911 39.2437 10.4688C40.7537 10.4464 42.2465 10.8017 43.5954 11.5042C44.843 12.1664 45.9085 13.1441 46.693 14.3466L44.2286 15.9196C43.7027 15.1241 42.9937 14.4764 42.1656 14.035C41.3026 13.5728 40.3433 13.3364 39.3716 13.3466C37.7196 13.3466 36.3422 13.9218 35.2394 15.0722C34.1367 16.2226 33.5849 17.6598 33.5841 19.3837C33.5841 21.1085 34.138 22.5478 35.2456 23.7017C36.3533 24.8555 37.7287 25.4329 39.3716 25.4337C40.347 25.4462 41.3103 25.2102 42.1768 24.7466C43.0054 24.3059 43.7145 23.6581 44.2397 22.8619L46.7042 24.435C45.9197 25.6375 44.8541 26.6152 43.6066 27.2773C42.3028 27.9743 40.8539 28.3304 39.3865 28.3145L39.3778 28.312ZM56.0291 28.3119C54.8434 28.3195 53.6678 28.0851 52.5697 27.6222C51.5342 27.1933 50.5906 26.5573 49.7931 25.7504C49.0089 24.9395 48.3881 23.9755 47.9667 22.9145C47.4538 21.6183 47.2292 20.2194 47.3096 18.8212C47.39 17.4231 47.7734 16.0616 48.4314 14.8376C49.1761 13.4922 50.2629 12.3837 51.5736 11.6324C52.9026 10.8905 54.385 10.4914 55.895 10.4691C57.4049 10.4467 58.8978 10.8019 60.2467 11.5042C61.4941 12.1666 62.5596 13.1443 63.3443 14.3465L60.8861 15.9183C60.3602 15.1228 59.6512 14.4751 58.8231 14.0337C57.9603 13.5711 57.0008 13.3347 56.0291 13.3453C54.3771 13.3453 53.0001 13.9205 51.8982 15.0709C50.7963 16.2213 50.2441 17.6585 50.2416 19.3824C50.2416 21.1072 50.7954 22.5465 51.9031 23.7004C53.0108 24.8542 54.3861 25.4316 56.0291 25.4324C57.0008 25.443 57.9603 25.2066 58.8231 24.744C59.6517 24.3034 60.3608 23.6555 60.8861 22.8594L63.3505 24.4324C62.5658 25.6347 61.5003 26.6124 60.2529 27.2747C58.9487 27.9717 57.4994 28.3278 56.0316 28.3119H56.0291ZM73.5763 25.1599C73.2849 25.2837 72.9717 25.3433 72.6568 25.335H68.0005V20.3593H72.6568C72.9712 20.3507 73.2839 20.4096 73.5752 20.5323C73.8665 20.655 74.1301 20.8388 74.3493 21.0722C74.5713 21.3036 74.7457 21.579 74.8622 21.882C74.9786 22.1849 75.0347 22.5091 75.0271 22.835C75.0351 23.1637 74.9793 23.4907 74.8629 23.7966C74.7465 24.1025 74.5718 24.381 74.3493 24.6158C74.131 24.8507 73.8677 25.036 73.5763 25.1599ZM68.0005 13.4427H72.0794L72.0807 13.4363C72.3585 13.4287 72.6349 13.4806 72.8924 13.5887C73.15 13.6968 73.3832 13.8588 73.5774 14.0645C73.966 14.4866 74.1819 15.0479 74.1798 15.6309C74.1777 16.2139 73.9579 16.7735 73.5663 17.1927C73.374 17.3991 73.1429 17.5625 72.8871 17.6728C72.6314 17.783 72.3565 17.8378 72.0794 17.8337H68.0005V13.4427ZM75.1319 18.8548C75.9871 19.1412 76.7182 19.7289 77.1978 20.5158C77.7344 21.3505 78.014 22.3339 77.9995 23.3363C77.9995 24.6858 77.5576 25.8021 76.6737 26.685C75.7899 27.5679 74.6797 28.0089 73.3432 28.0081H65.2326V10.7722H72.7906C74.0247 10.7722 75.0572 11.185 75.8882 12.0106C76.7192 12.8363 77.1322 13.8709 77.1272 15.1145C77.1359 15.9029 76.9427 16.6796 76.5672 17.3657C76.2397 17.9967 75.7406 18.5143 75.1319 18.8548Z" fill="white"/>
</svg>
