<svg width="110" height="44" viewBox="0 0 110 44" fill="none" xmlns="http://www.w3.org/2000/svg">
<path fill-rule="evenodd" clip-rule="evenodd" d="M26.4218 7.97659C29.5766 7.97659 32.1337 10.0458 32.1337 12.5985C32.1337 15.1512 29.5766 17.2221 26.4218 17.2221C24.0084 17.2221 21.949 16.0049 21.1148 14.2956C20.7494 15.8729 19.9419 17.3154 18.7855 18.4567C20.6082 20.0687 23.1671 21.065 26.0169 21.065C31.5466 21.065 36.0281 17.2708 36.0281 12.5915C36.0281 7.91225 31.5466 4.125 26.0169 4.125C23.1724 4.125 20.6082 5.13006 18.7855 6.74199C19.9419 7.88331 20.7494 9.32587 21.1148 10.9031C21.949 9.19032 24.0084 7.97659 26.4218 7.97659ZM32.1337 30.7123C32.1337 28.1597 29.5766 26.0904 26.4218 26.0904C24.0084 26.0904 21.949 27.3076 21.1148 28.9995C20.7494 27.4223 19.9419 25.9797 18.7855 24.8384C20.6082 23.2352 23.1724 22.2301 26.0169 22.2301C31.5466 22.2301 36.0281 26.0243 36.0281 30.7036C36.0281 35.3829 31.5466 39.1771 26.0169 39.1771C23.1671 39.1771 20.6082 38.1807 18.7855 36.5688C19.9423 35.4278 20.7499 33.9851 21.1148 32.4077C21.949 34.117 24.0084 35.3342 26.4218 35.3342C29.5766 35.3342 32.1337 33.265 32.1337 30.7123ZM4.58367 30.714C4.58367 33.2667 7.13904 35.3359 10.2938 35.3359V35.3516C12.7072 35.3516 14.7649 34.1379 15.6009 32.4268C15.9665 34.0038 16.7746 35.4459 17.9319 36.5862C16.1091 38.1894 13.5433 39.1945 10.7004 39.1945C5.1708 39.1945 0.6875 35.4003 0.6875 30.721C0.6875 26.0417 5.1708 22.2475 10.7004 22.2475C13.5503 22.2475 16.1091 23.2439 17.9319 24.8558C16.7746 25.9961 15.9665 27.4382 15.6009 29.0152C14.7649 27.3076 12.7072 26.0904 10.2938 26.0904C7.14079 26.0904 4.58367 28.1614 4.58367 30.714ZM4.58367 12.6008C4.58367 15.1535 7.13904 17.2227 10.2938 17.2227C12.7072 17.2227 14.7649 16.0055 15.6044 14.3049C15.97 15.8819 16.7782 17.324 17.9354 18.4643C16.1127 20.0675 13.5468 21.0726 10.7039 21.0726C5.17081 21.0726 0.6875 17.2888 0.6875 12.6095C0.6875 7.9302 5.1708 4.13599 10.7004 4.13599C13.5503 4.13599 16.1091 5.13236 17.9319 6.74429C16.7746 7.88458 15.9665 9.32665 15.6009 10.9037C14.7649 9.19609 12.7072 7.97889 10.2938 7.97889C7.14079 7.97889 4.58367 10.0481 4.58367 12.6008Z" fill="white"/>
<path d="M46.1182 15.951C45.5571 15.9546 45.0008 15.8482 44.4812 15.638C43.9909 15.4432 43.5441 15.1543 43.1667 14.7877C42.7955 14.4198 42.5018 13.9824 42.3027 13.5009C42.0888 12.9932 41.9804 12.4479 41.9837 11.8977C41.9752 11.1756 42.161 10.4643 42.5217 9.83711C42.8724 9.22605 43.3853 8.72206 44.0045 8.37994C44.6482 8.02838 45.3729 7.84863 46.1077 7.85828C46.8024 7.85152 47.4883 8.01329 48.1057 8.32951C48.6968 8.6296 49.2015 9.07351 49.5727 9.61975L48.4072 10.3327C48.1581 9.97181 47.8226 9.67786 47.4309 9.47716C47.0218 9.2684 46.5677 9.16157 46.1077 9.16591C45.745 9.15625 45.3842 9.22074 45.0477 9.35535C44.7112 9.48997 44.4062 9.69184 44.1517 9.9484C43.8941 10.2046 43.6918 10.5102 43.5571 10.8465C43.4224 11.1829 43.3582 11.5429 43.3683 11.9046C43.3585 12.2672 43.4232 12.6279 43.5585 12.9648C43.6938 13.3017 43.8968 13.6078 44.1552 13.8643C44.4084 14.1218 44.7126 14.3246 45.0486 14.4599C45.3846 14.5951 45.7452 14.66 46.1077 14.6503C46.5678 14.6558 47.0223 14.5489 47.4309 14.339C47.8226 14.1383 48.1581 13.8444 48.4072 13.4835L49.5727 14.1964C49.2045 14.7405 48.7035 15.1832 48.1162 15.4832C47.4992 15.8002 46.813 15.9621 46.1182 15.9544" fill="white"/>
<path d="M55.5563 7.78516L54.1174 9.35014H52.7678L53.9351 7.78516H55.5563ZM53.341 14.7215C53.5793 14.7276 53.8164 14.6844 54.037 14.5946C54.2576 14.5048 54.4569 14.3703 54.6221 14.1998C54.7897 14.0312 54.9212 13.8308 55.0088 13.6106C55.0965 13.3904 55.1384 13.155 55.1322 12.9183C55.1386 12.6808 55.0968 12.4445 55.0092 12.2234C54.9215 12.0023 54.7899 11.801 54.6221 11.6315C54.4567 11.4612 54.2574 11.3269 54.0368 11.2371C53.8163 11.1473 53.5793 11.1039 53.341 11.1099C53.1011 11.1045 52.8627 11.148 52.6406 11.2377C52.4184 11.3275 52.2171 11.4615 52.0493 11.6315C51.8801 11.8003 51.7473 12.0013 51.6587 12.2225C51.5701 12.4437 51.5277 12.6804 51.534 12.9183C51.5279 13.1554 51.5704 13.3912 51.659 13.6115C51.7476 13.8318 51.8804 14.032 52.0493 14.1998C52.2167 14.3704 52.4179 14.5047 52.6402 14.5945C52.8625 14.6843 53.101 14.7275 53.341 14.7215ZM55.1322 10.0266H56.4151V15.8118H55.1322V14.9823C54.8941 15.2933 54.5846 15.5435 54.2295 15.7119C53.8743 15.8804 53.4838 15.9623 53.0903 15.9509C52.5736 15.9572 52.0654 15.8199 51.6234 15.5544C51.1858 15.2929 50.8292 14.9169 50.5928 14.4676C50.3424 13.9907 50.2153 13.4595 50.223 12.9218C50.2155 12.3846 50.3426 11.8541 50.5928 11.3777C50.8288 10.9281 51.1854 10.5519 51.6234 10.2909C52.0654 10.0254 52.5736 9.88808 53.0903 9.8944C53.4834 9.88193 53.8738 9.96285 54.229 10.1304C54.5842 10.298 54.8938 10.5474 55.1322 10.8577V10.0266Z" fill="white"/>
<path d="M64.6561 9.89449C64.9473 9.88074 65.2382 9.92625 65.511 10.0282C65.7838 10.1302 66.0326 10.2865 66.2423 10.4874C66.4432 10.6947 66.5997 10.9402 66.7021 11.2092C66.8046 11.4783 66.8508 11.7651 66.8382 12.0524V15.8118H65.5622V12.435C65.5707 12.2605 65.5441 12.086 65.4839 11.9218C65.4237 11.7576 65.3312 11.6069 65.2117 11.4786C65.0892 11.3573 64.9425 11.2626 64.7811 11.2006C64.6196 11.1387 64.4469 11.1107 64.274 11.1186C64.0894 11.109 63.9047 11.1363 63.7309 11.1991C63.5571 11.2618 63.3979 11.3586 63.2627 11.4838C63.1351 11.6104 63.0353 11.7617 62.9696 11.9284C62.9038 12.0951 62.8735 12.2735 62.8807 12.4524V15.8118H61.603V12.435C61.6121 12.2604 61.5858 12.0858 61.5256 11.9215C61.4654 11.7572 61.3725 11.6066 61.2524 11.4786C61.1284 11.3563 60.98 11.2611 60.8167 11.1991C60.6534 11.1371 60.4789 11.1097 60.3042 11.1186C60.123 11.1112 59.9421 11.1397 59.7721 11.2024C59.6021 11.2651 59.4463 11.3607 59.314 11.4838C59.1854 11.6104 59.0848 11.7623 59.0187 11.9296C58.9526 12.097 58.9225 12.2762 58.9302 12.4558V15.8118H57.6472V10.0336H58.9302V10.7083C59.1457 10.4421 59.4211 10.2299 59.7343 10.0885C60.0475 9.94718 60.3898 9.88072 60.7337 9.89449C61.1246 9.88624 61.511 9.9785 61.8554 10.1623C62.1733 10.336 62.4343 10.5968 62.6072 10.9135C63.0746 10.2341 63.7576 9.89449 64.6561 9.89449Z" fill="white"/>
<path d="M70.7729 14.7214C71.011 14.7274 71.2477 14.6841 71.468 14.5943C71.6883 14.5045 71.8873 14.3701 72.0523 14.1997C72.2212 14.0324 72.3544 13.8329 72.4438 13.6133C72.5333 13.3937 72.5771 13.1585 72.5728 12.9217C72.579 12.6841 72.5368 12.4477 72.4489 12.2267C72.361 12.0056 72.2291 11.8043 72.0611 11.6349C71.8958 11.4648 71.6968 11.3306 71.4766 11.2408C71.2563 11.151 71.0197 11.1076 70.7816 11.1133C70.5418 11.1079 70.3034 11.1514 70.0812 11.2411C69.859 11.3309 69.6578 11.4649 69.4899 11.6349C69.3186 11.8026 69.1837 12.0032 69.0933 12.2245C69.0029 12.4458 68.9589 12.683 68.9641 12.9217C68.9587 13.1596 69.0026 13.3961 69.093 13.6166C69.1835 13.837 69.3185 14.0367 69.4899 14.2032C69.6573 14.3739 69.8584 14.5084 70.0807 14.5982C70.3031 14.688 70.5417 14.7311 70.7816 14.7249L70.7729 14.7214ZM72.5728 10.0299H73.8558V15.8117H72.5728V14.9822C72.3344 15.2933 72.0246 15.5434 71.6692 15.7119C71.3138 15.8803 70.923 15.9622 70.5292 15.9508C70.0126 15.9566 69.5046 15.8193 69.0623 15.5543C68.6256 15.2922 68.2698 14.9163 68.0335 14.4675C67.7825 13.9907 67.6548 13.4595 67.6619 12.9217C67.655 12.3844 67.7827 11.8538 68.0335 11.3776C68.2692 10.9284 68.6252 10.5524 69.0623 10.2908C69.5046 10.0258 70.0126 9.88855 70.5292 9.89432C70.9226 9.88185 71.3132 9.96276 71.6687 10.1303C72.0242 10.2979 72.3341 10.5472 72.5728 10.8576V10.0299Z" fill="white"/>
<path d="M78.1814 9.93816H78.4005V11.2458H78.1814C77.939 11.232 77.6963 11.2668 77.4678 11.348C77.2392 11.4293 77.0295 11.5554 76.8511 11.7188C76.6869 11.8884 76.5594 12.0896 76.4765 12.31C76.3936 12.5305 76.3571 12.7654 76.3691 13.0003V15.812H75.0862V10.0338H76.3691V10.8806C76.5687 10.5867 76.8388 10.3466 77.1552 10.1821C77.4715 10.0175 77.8242 9.93371 78.1814 9.93816Z" fill="white"/>
<path d="M81.7218 14.7214C81.9602 14.7276 82.1972 14.6843 82.4178 14.5945C82.6384 14.5047 82.8377 14.3703 83.003 14.1997C83.1705 14.0312 83.3021 13.8308 83.3897 13.6106C83.4773 13.3904 83.5193 13.1549 83.513 12.9182C83.5195 12.6807 83.4777 12.4444 83.39 12.2233C83.3024 12.0022 83.1708 11.8009 83.003 11.6314C82.8376 11.4611 82.6383 11.3268 82.4177 11.237C82.1971 11.1472 81.9602 11.1039 81.7218 11.1098C81.482 11.1044 81.2436 11.1479 81.0214 11.2377C80.7992 11.3274 80.598 11.4614 80.4301 11.6314C80.261 11.8002 80.1281 12.0013 80.0396 12.2224C79.951 12.4436 79.9086 12.6803 79.9148 12.9182C79.9088 13.1553 79.9513 13.3912 80.0399 13.6115C80.1285 13.8317 80.2612 14.0319 80.4301 14.1997C80.5976 14.3703 80.7988 14.5046 81.0211 14.5944C81.2433 14.6842 81.4819 14.7274 81.7218 14.7214ZM83.513 10.0265H84.796V15.8117H83.513V14.9822C83.275 15.2933 82.9655 15.5434 82.6103 15.7119C82.2552 15.8803 81.8647 15.9622 81.4712 15.9508C80.9545 15.9571 80.4463 15.8198 80.0042 15.5543C79.5674 15.2919 79.211 14.9161 78.9737 14.4675C78.7232 13.9906 78.5962 13.4594 78.6038 12.9217C78.5964 12.3845 78.7235 11.854 78.9737 11.3776C79.2101 10.9283 79.5667 10.5523 80.0042 10.2908C80.4463 10.0253 80.9545 9.888 81.4712 9.89432C81.8643 9.88184 82.2547 9.96276 82.6099 10.1303C82.965 10.2979 83.2747 10.5473 83.513 10.8576V10.0265Z" fill="white"/>
<path d="M45.0807 25.2837C45.319 25.2894 45.5559 25.246 45.7765 25.1562C45.997 25.0664 46.1964 24.9322 46.3619 24.762C46.5293 24.5933 46.6607 24.3929 46.7483 24.1727C46.8359 23.9525 46.878 23.7171 46.8719 23.4805C46.8785 23.243 46.8367 23.0066 46.7491 22.7855C46.6614 22.5644 46.5298 22.3631 46.3619 22.1937C46.1965 22.0233 45.9972 21.8889 45.7767 21.7991C45.5561 21.7093 45.3191 21.666 45.0807 21.672C44.8408 21.6658 44.6021 21.709 44.3798 21.7987C44.1575 21.8885 43.9564 22.023 43.789 22.1937C43.6197 22.3624 43.4867 22.5634 43.3982 22.7846C43.3096 23.0058 43.2672 23.2425 43.2737 23.4805C43.2678 23.7176 43.3104 23.9534 43.3989 24.1737C43.4875 24.3939 43.6202 24.5941 43.789 24.762C43.9569 24.932 44.1581 25.0661 44.3803 25.1558C44.6025 25.2455 44.8409 25.2891 45.0807 25.2837ZM46.8719 18.21H48.1549V26.3826H46.8719V25.5515C46.6338 25.8625 46.3244 26.1126 45.9692 26.2811C45.6141 26.4495 45.2236 26.5314 44.8301 26.52C44.3131 26.5258 43.8047 26.3891 43.3614 26.1253C42.9249 25.8622 42.5692 25.4858 42.3326 25.0368C42.0814 24.5606 41.9537 24.03 41.961 23.4926C41.9539 22.9548 42.0816 22.4236 42.3326 21.9468C42.5689 21.498 42.9247 21.1221 43.3614 20.86C43.8042 20.5948 44.3129 20.4574 44.8301 20.4635C45.2232 20.4511 45.6136 20.532 45.9687 20.6995C46.3239 20.8671 46.6336 21.1165 46.8719 21.4269V18.21Z" fill="white"/>
<path d="M52.042 21.6021C51.649 21.5948 51.2662 21.7268 50.9624 21.9742C50.6529 22.2235 50.4358 22.568 50.3455 22.9532H53.7439C53.658 22.5674 53.4423 22.2221 53.1322 21.9742C52.8242 21.7268 52.4382 21.5951 52.042 21.6021ZM55.1109 23.4957C55.1109 23.6627 55.0991 23.8294 55.0759 23.9948H50.356C50.4506 24.3944 50.6846 24.748 51.0167 24.9929C51.3686 25.2477 51.7959 25.3792 52.2313 25.3668C52.5837 25.3696 52.9321 25.2923 53.2496 25.1407C53.5359 25.0109 53.787 24.8154 53.9822 24.5704L54.848 25.3059C54.5417 25.6865 54.1489 25.9898 53.7018 26.191C53.2305 26.4068 52.717 26.5167 52.198 26.5127C51.7755 26.5267 51.3543 26.457 50.9592 26.3077C50.5641 26.1584 50.2029 25.9325 49.8968 25.6432C49.598 25.3652 49.3617 25.0277 49.2034 24.6529C49.0452 24.278 48.9685 23.8742 48.9784 23.4679C48.9716 22.9314 49.1102 22.4029 49.3797 21.9377C49.6427 21.4814 50.0263 21.105 50.4892 20.8492C50.9677 20.5857 51.5071 20.4503 52.0543 20.4562C52.4589 20.4451 52.8615 20.5165 53.2371 20.6661C53.6128 20.8156 53.9535 21.0401 54.2381 21.3256C54.526 21.6091 54.7522 21.948 54.9029 22.3215C55.0536 22.6951 55.1256 23.0953 55.1144 23.4975" fill="white"/>
<path d="M62.5196 26.5128C61.9585 26.5164 61.4022 26.41 60.8826 26.1998C60.3927 26.005 59.946 25.7167 59.5681 25.3512C59.1969 24.9827 58.9032 24.5447 58.704 24.0627C58.4901 23.5556 58.3816 23.0109 58.3851 22.4612C58.3764 21.7383 58.5628 21.0263 58.9249 20.3989C59.2754 19.787 59.7898 19.2832 60.4111 18.9435C61.0545 18.5911 61.7794 18.4113 62.5143 18.4218C63.2089 18.4145 63.8948 18.5757 64.5123 18.8913C65.1046 19.1903 65.611 19.6329 65.9846 20.1781L64.8191 20.8928C64.5704 20.5315 64.2349 20.2374 63.8428 20.0372C63.4343 19.8267 62.9799 19.7192 62.5196 19.7242C62.1572 19.7147 61.7966 19.7793 61.4605 19.9139C61.1243 20.0485 60.8196 20.2503 60.5654 20.5067C60.3074 20.7625 60.1045 21.0676 59.9692 21.4037C59.8339 21.7397 59.769 22.0995 59.7784 22.4612C59.7687 22.8237 59.8335 23.1844 59.9688 23.5214C60.104 23.8583 60.307 24.1643 60.5654 24.4209C60.8191 24.6777 61.1234 24.8799 61.4593 25.0151C61.7952 25.1503 62.1555 25.2156 62.5178 25.2069C62.9781 25.2119 63.4326 25.1044 63.8411 24.8939C64.2331 24.6937 64.5686 24.3996 64.8173 24.0384L65.9828 24.753C65.6116 25.2987 65.1068 25.7421 64.5158 26.0415C63.8988 26.3586 63.2127 26.5204 62.5178 26.5128" fill="white"/>
<path d="M68.2052 24.767C68.3728 24.9368 68.5738 25.0707 68.7957 25.1604C69.0175 25.2501 69.2556 25.2938 69.4951 25.2886C69.7332 25.2945 69.9699 25.2512 70.1902 25.1614C70.4104 25.0716 70.6095 24.9372 70.7746 24.767C70.9426 24.5986 71.0745 24.3983 71.1625 24.1781C71.2504 23.9578 71.2926 23.7222 71.2863 23.4854C71.293 23.2478 71.251 23.0112 71.1631 22.7901C71.0751 22.569 70.943 22.3678 70.7746 22.1987C70.6097 22.0281 70.4107 21.8936 70.1904 21.8038C69.97 21.714 69.7332 21.6708 69.4951 21.677C69.2556 21.6719 69.0175 21.7155 68.7957 21.8052C68.5738 21.8949 68.3728 22.0288 68.2052 22.1987C68.0343 22.3663 67.8997 22.5667 67.8093 22.7876C67.7189 23.0085 67.6747 23.2453 67.6794 23.4837C67.6746 23.7215 67.7187 23.9579 67.8091 24.1782C67.8995 24.3986 68.0343 24.5983 68.2052 24.7652V24.767ZM69.4951 26.5041C69.0839 26.5154 68.6747 26.4443 68.2919 26.2949C67.9091 26.1455 67.5607 25.9209 67.2675 25.6347C66.9772 25.3563 66.7481 25.0213 66.5945 24.6509C66.441 24.2804 66.3664 23.8824 66.3754 23.4819C66.3655 23.0803 66.4397 22.681 66.5933 22.3093C66.7468 21.9376 66.9764 21.6015 67.2675 21.3223C67.5607 21.036 67.9091 20.8115 68.2919 20.6621C68.6747 20.5127 69.0839 20.4415 69.4951 20.4528C70.0495 20.4463 70.5962 20.5829 71.0813 20.8493C71.5497 21.1038 71.9389 21.4809 72.2065 21.9396C72.4794 22.408 72.6198 22.9409 72.6131 23.4819C72.6196 24.0224 72.4791 24.5546 72.2065 25.0226C71.9398 25.4819 71.5504 25.8592 71.0813 26.1128C70.5962 26.3792 70.0495 26.5159 69.4951 26.5093" fill="white"/>
<path d="M80.4282 20.4566C80.7195 20.4426 81.0106 20.4879 81.2836 20.5896C81.5567 20.6912 81.8059 20.8472 82.0161 21.0478C82.2165 21.2553 82.3724 21.501 82.4746 21.7699C82.5767 22.0389 82.6228 22.3256 82.6102 22.6128V26.367H81.336V22.9988C81.3448 22.824 81.3184 22.6492 81.2582 22.4846C81.198 22.3201 81.1053 22.1692 80.9855 22.0407C80.863 21.9193 80.7163 21.8247 80.5549 21.7627C80.3934 21.7007 80.2208 21.6728 80.0478 21.6807C79.8645 21.6729 79.6815 21.7016 79.5096 21.7652C79.3377 21.8288 79.1804 21.926 79.0471 22.0511C78.9191 22.1774 78.8191 22.3287 78.7533 22.4955C78.6875 22.6622 78.6574 22.8407 78.665 23.0196V26.3757H77.3873V22.9988C77.3964 22.8239 77.3701 22.6491 77.3099 22.4845C77.2497 22.3199 77.1568 22.169 77.0368 22.0407C76.9139 21.9193 76.767 21.8246 76.6052 21.7627C76.4435 21.7007 76.2705 21.6728 76.0973 21.6807C75.915 21.6729 75.7329 21.7016 75.5619 21.7649C75.3909 21.8282 75.2345 21.9249 75.1018 22.0494C74.9735 22.1757 74.8732 22.3273 74.8074 22.4944C74.7416 22.6615 74.7118 22.8404 74.7198 23.0196V26.3757H73.4351V20.5957H74.7198V21.2703C74.9347 21.004 75.2098 20.7916 75.5228 20.6502C75.8358 20.5089 76.1779 20.4425 76.5215 20.4566C76.9126 20.4488 77.299 20.5417 77.6432 20.7261C77.9612 20.8996 78.2227 21.1596 78.3968 21.4755C78.8642 20.7974 79.5466 20.4577 80.4439 20.4566" fill="white"/>
<path d="M86.4785 21.6023C86.0856 21.5956 85.703 21.7274 85.3989 21.9744C85.0904 22.2243 84.874 22.5686 84.7837 22.9534H88.1803C88.0961 22.5673 87.8808 22.2217 87.5704 21.9744C87.2619 21.7267 86.8753 21.595 86.4785 21.6023ZM89.5474 23.4959C89.5479 23.6628 89.5368 23.8296 89.5141 23.9949H84.7942C84.8874 24.3952 85.1217 24.7492 85.4549 24.9931C85.8068 25.2478 86.2341 25.3793 86.6695 25.3669C87.0219 25.3698 87.3703 25.2925 87.6878 25.1409C87.9742 25.011 88.2253 24.8156 88.4204 24.5705L89.2863 25.306C88.9799 25.6866 88.5871 25.9899 88.14 26.1911C87.6687 26.4068 87.1552 26.5166 86.6362 26.5128C86.2134 26.5268 85.792 26.4572 85.3966 26.3079C85.0012 26.1586 84.6397 25.9327 84.3332 25.6434C84.035 25.365 83.7993 25.0274 83.6413 24.6526C83.4834 24.2778 83.4068 23.8742 83.4166 23.4681C83.4098 22.9315 83.5484 22.403 83.818 21.9379C84.0807 21.4833 84.4637 21.1087 84.9256 20.8546C85.4042 20.5911 85.9435 20.4557 86.4908 20.4616C86.8954 20.4505 87.298 20.5219 87.6736 20.6715C88.0492 20.821 88.3899 21.0455 88.6746 21.331C88.9624 21.6144 89.1887 21.9534 89.3394 22.3269C89.4901 22.7004 89.5621 23.1006 89.5509 23.5028" fill="white"/>
<path d="M93.4978 20.5017H93.7151V21.8075H93.4978C93.2554 21.7939 93.0128 21.8287 92.7842 21.91C92.5557 21.9912 92.346 22.1172 92.1675 22.2805C92.0028 22.4499 91.8749 22.6511 91.7917 22.8715C91.7085 23.0919 91.6718 23.327 91.6838 23.5621V26.3755H90.4009V20.5956H91.6768V21.4424C91.8768 21.1486 92.1473 20.9088 92.464 20.7446C92.7806 20.5804 93.1335 20.4969 93.4908 20.5017" fill="white"/>
<path d="M97.0155 26.5128C96.6045 26.5241 96.1956 26.4529 95.8131 26.3035C95.4306 26.1541 95.0824 25.9295 94.7896 25.6433C94.4979 25.3642 94.268 25.0278 94.1144 24.6557C93.9608 24.2836 93.8869 23.8839 93.8975 23.4819C93.8872 23.0803 93.9612 22.6809 94.1148 22.3091C94.2683 21.9373 94.4981 21.6012 94.7896 21.3223C95.0824 21.0361 95.4306 20.8115 95.8131 20.6621C96.1956 20.5127 96.6045 20.4415 97.0155 20.4528C97.5662 20.4448 98.1096 20.5784 98.5928 20.8406C99.0476 21.0851 99.4287 21.4452 99.697 21.8839L98.5876 22.5534C98.4338 22.284 98.2098 22.0606 97.9391 21.9065C97.6612 21.7472 97.3452 21.6649 97.0242 21.6683C96.7849 21.6627 96.5469 21.7061 96.3253 21.7958C96.1036 21.8856 95.903 22.0198 95.736 22.19C95.5649 22.3574 95.43 22.5577 95.3396 22.7787C95.2492 22.9996 95.2051 23.2366 95.2102 23.475C95.2048 23.7129 95.2487 23.9494 95.3391 24.1699C95.4295 24.3903 95.5646 24.59 95.736 24.7565C95.9035 24.9261 96.1042 25.0599 96.3257 25.1496C96.5473 25.2393 96.785 25.2831 97.0242 25.2782C97.3429 25.2836 97.6571 25.2037 97.9338 25.0469C98.2022 24.8933 98.4248 24.6719 98.5788 24.4053L99.6883 25.0695C99.4199 25.5126 99.0376 25.8769 98.5806 26.125C98.1015 26.3867 97.5623 26.5208 97.0155 26.5145" fill="white"/>
<path d="M100.377 20.5957H101.667V26.3757H100.382L100.377 20.5957ZM101.02 19.615C100.913 19.6175 100.806 19.5983 100.706 19.5586C100.606 19.5188 100.516 19.4593 100.44 19.3838C100.364 19.3094 100.304 19.2205 100.264 19.1224C100.224 19.0244 100.205 18.9192 100.207 18.8134C100.203 18.7067 100.222 18.6004 100.262 18.5013C100.303 18.4022 100.363 18.3124 100.44 18.2378C100.517 18.1632 100.608 18.1047 100.708 18.0655C100.808 18.0264 100.915 18.0075 101.022 18.0101C101.13 18.0072 101.237 18.0259 101.338 18.065C101.439 18.1041 101.53 18.1629 101.607 18.2378C101.685 18.3124 101.745 18.402 101.786 18.5011C101.826 18.6002 101.845 18.7066 101.842 18.8134C101.845 18.9197 101.825 19.0253 101.785 19.1237C101.744 19.2221 101.684 19.3113 101.607 19.3855C101.53 19.461 101.439 19.5203 101.338 19.5597C101.238 19.5992 101.13 19.618 101.022 19.615" fill="white"/>
<path d="M104.217 24.7669C104.385 24.9367 104.586 25.0706 104.808 25.1603C105.029 25.2501 105.267 25.2937 105.507 25.2886C105.745 25.2942 105.982 25.2508 106.202 25.161C106.422 25.0712 106.621 24.937 106.786 24.7669C106.955 24.5979 107.087 24.397 107.174 24.1762C107.262 23.9554 107.305 23.7192 107.298 23.4819C107.304 23.2443 107.262 23.0079 107.174 22.7868C107.086 22.5657 106.955 22.3645 106.786 22.1951C106.621 22.0247 106.422 21.8904 106.202 21.8006C105.982 21.7107 105.745 21.6674 105.507 21.6735C105.267 21.6683 105.029 21.712 104.808 21.8017C104.586 21.8914 104.385 22.0253 104.217 22.1951C104.046 22.3628 103.912 22.5632 103.821 22.7841C103.731 23.005 103.687 23.2418 103.691 23.4801C103.686 23.718 103.731 23.9543 103.821 24.1747C103.911 24.395 104.046 24.5948 104.217 24.7617V24.7669ZM105.507 26.5005C105.096 26.5119 104.687 26.4407 104.304 26.2913C103.921 26.1419 103.573 25.9174 103.279 25.6311C102.989 25.3531 102.761 25.0187 102.607 24.6489C102.454 24.2791 102.379 23.8818 102.387 23.4819C102.378 23.0808 102.452 22.6822 102.606 22.3111C102.759 21.9401 102.989 21.6045 103.279 21.3257C103.573 21.0394 103.921 20.8149 104.304 20.6655C104.687 20.5161 105.096 20.4449 105.507 20.4562C106.064 20.4485 106.613 20.5851 107.1 20.8527C107.569 21.1073 107.958 21.4843 108.225 21.943C108.495 22.4111 108.633 22.9426 108.625 23.4819C108.632 24.0223 108.491 24.5546 108.218 25.0225C107.954 25.4822 107.567 25.8607 107.1 26.1163C106.615 26.3826 106.068 26.5193 105.514 26.5127" fill="white"/>
<path d="M45.0807 35.8469C45.3191 35.853 45.5561 35.8097 45.7767 35.7199C45.9972 35.6301 46.1965 35.4957 46.3619 35.3253C46.5294 35.1567 46.661 34.9563 46.7486 34.7361C46.8362 34.5159 46.8782 34.2804 46.8719 34.0437C46.8785 33.8062 46.8367 33.5699 46.7491 33.3488C46.6614 33.1277 46.5298 32.9264 46.3619 32.757C46.1963 32.5869 45.9969 32.4527 45.7764 32.3629C45.5559 32.2732 45.319 32.2297 45.0807 32.2353C44.8409 32.2299 44.6025 32.2734 44.3803 32.3632C44.1581 32.4529 43.9569 32.5869 43.789 32.757C43.6197 32.9256 43.4867 33.1266 43.3982 33.3478C43.3096 33.569 43.2672 33.8058 43.2737 34.0437C43.2677 34.2808 43.3102 34.5167 43.3988 34.737C43.4874 34.9573 43.6201 35.1574 43.789 35.3253C43.9564 35.496 44.1575 35.6305 44.3798 35.7202C44.6021 35.81 44.8408 35.8532 45.0807 35.8469ZM46.8719 28.7715H48.1549V36.9442H46.8719V36.106C46.6341 36.4174 46.3247 36.6677 45.9695 36.8362C45.6143 37.0047 45.2236 37.0864 44.8301 37.0746C44.313 37.0812 43.8044 36.9445 43.3614 36.6799C42.9242 36.4176 42.5683 36.041 42.3326 35.5913C42.0814 35.1152 41.9537 34.5845 41.961 34.0472C41.9537 33.5099 42.0814 32.9792 42.3326 32.5031C42.5692 32.0541 42.9249 31.6777 43.3614 31.4146C43.8047 31.1507 44.3131 31.0141 44.8301 31.0198C45.2232 31.0071 45.6137 31.0879 45.9689 31.2555C46.3242 31.4231 46.6338 31.6726 46.8719 31.9832V28.7715Z" fill="white"/>
<path d="M52.042 32.1662C51.6493 32.159 51.2668 32.2902 50.9624 32.5365C50.6529 32.7858 50.4358 33.1303 50.3455 33.5155H53.7439C53.658 33.1297 53.4423 32.7845 53.1322 32.5365C52.8236 32.2904 52.4379 32.1594 52.042 32.1662ZM55.1109 34.0581C55.1109 34.225 55.0992 34.3918 55.0759 34.5571H50.356C50.4502 34.9574 50.6843 35.3116 51.0167 35.557C51.3692 35.8104 51.7962 35.9412 52.2313 35.9291C52.5837 35.9319 52.9321 35.8546 53.2496 35.703C53.5363 35.5738 53.7875 35.3782 53.9822 35.1327L54.848 35.8682C54.5418 36.2493 54.149 36.5532 53.7018 36.755C53.2304 36.9703 52.7169 37.0796 52.198 37.075C51.7755 37.089 51.3543 37.0193 50.9592 36.87C50.5641 36.7207 50.2029 36.4948 49.8968 36.2056C49.598 35.9275 49.3617 35.5901 49.2034 35.2152C49.0452 34.8403 48.9685 34.4365 48.9784 34.0302C48.9717 33.4937 49.1103 32.9653 49.3798 32.5C49.6425 32.0459 50.0256 31.6719 50.4874 31.4185C50.9656 31.1541 51.5052 31.0186 52.0526 31.0255C52.4571 31.0147 52.8596 31.0863 53.2352 31.2358C53.6108 31.3853 53.9515 31.6097 54.2364 31.8949C54.5237 32.1787 54.7496 32.5177 54.9003 32.8912C55.051 33.2646 55.1233 33.6646 55.1127 34.0667" fill="white"/>
<path d="M62.3145 35.7254C62.4633 35.7289 62.6112 35.7016 62.7488 35.6453C62.8864 35.5891 63.0107 35.505 63.1137 35.3985C63.2191 35.2919 63.3018 35.1654 63.3569 35.0265C63.412 34.8876 63.4384 34.7391 63.4345 34.5899C63.4381 34.442 63.4116 34.2949 63.3565 34.1574C63.3014 34.02 63.2188 33.895 63.1137 33.79C63.0102 33.6843 62.8858 33.601 62.7482 33.5453C62.6107 33.4897 62.463 33.4628 62.3145 33.4666H60.1097V35.7271L62.3145 35.7254ZM62.0411 30.3349H60.1132V32.3276H62.0411C62.1716 32.3296 62.3012 32.305 62.4218 32.2554C62.5424 32.2057 62.6514 32.1321 62.7422 32.039C62.8365 31.9468 62.9107 31.8365 62.9605 31.7148C63.0102 31.5931 63.0343 31.4625 63.0314 31.3313C63.0378 31.1991 63.0168 31.067 62.9698 30.9432C62.9228 30.8194 62.8507 30.7065 62.7579 30.6114C62.667 30.5187 62.5578 30.4456 62.4373 30.3966C62.3167 30.3475 62.1872 30.3236 62.0569 30.3262L62.0411 30.3349ZM63.4958 32.7832C63.9019 32.9122 64.2493 33.1787 64.4773 33.5361C64.7317 33.9147 64.8643 34.361 64.8576 34.8159C64.8658 35.0984 64.8141 35.3795 64.7061 35.6409C64.598 35.9024 64.4359 36.1385 64.2302 36.334C64.0209 36.5334 63.7736 36.6894 63.5027 36.7927C63.2318 36.896 62.9429 36.9446 62.6528 36.9356H58.8145V29.1107H62.3916C62.661 29.1029 62.9292 29.1486 63.1805 29.245C63.4318 29.3415 63.6612 29.4868 63.8551 29.6724C64.0474 29.853 64.1993 30.0717 64.3007 30.3144C64.4022 30.5571 64.451 30.8182 64.444 31.0809C64.4433 31.4418 64.3452 31.7961 64.1601 32.1068C64.0038 32.3942 63.7662 32.6299 63.4765 32.7849" fill="white"/>
<path d="M67.1973 35.3291C67.365 35.4989 67.566 35.6328 67.7878 35.7226C68.0097 35.8123 68.2477 35.8559 68.4873 35.8508C68.7253 35.8566 68.962 35.8132 69.1823 35.7234C69.4025 35.6336 69.6016 35.4993 69.7667 35.3291C69.9348 35.1609 70.0668 34.9606 70.1548 34.7403C70.2427 34.5201 70.2848 34.2844 70.2785 34.0476C70.2851 33.8099 70.2432 33.5734 70.1553 33.3523C70.0673 33.1311 69.9351 32.9299 69.7667 32.7608C69.6016 32.5906 69.4025 32.4564 69.1823 32.3666C68.962 32.2767 68.7253 32.2334 68.4873 32.2392C68.2477 32.234 68.0097 32.2777 67.7878 32.3674C67.566 32.4571 67.365 32.591 67.1973 32.7608C67.0265 32.9285 66.8918 33.1289 66.8014 33.3498C66.7111 33.5707 66.6669 33.8075 66.6715 34.0458C66.6661 34.2838 66.71 34.5203 66.8004 34.7407C66.8909 34.9612 67.0259 35.1608 67.1973 35.3274V35.3291ZM68.4873 37.0663C68.0763 37.0778 67.6673 37.0067 67.2848 36.8572C66.9022 36.7078 66.5541 36.4832 66.2614 36.1968C65.9699 35.9178 65.7399 35.5818 65.5861 35.21C65.4322 34.8383 65.3578 34.4389 65.3675 34.0371C65.3579 33.6354 65.4324 33.2361 65.5862 32.8643C65.7401 32.4926 65.97 32.1566 66.2614 31.8775C66.5541 31.5911 66.9022 31.3665 67.2848 31.217C67.6673 31.0676 68.0763 30.9965 68.4873 31.008C69.0415 31.0017 69.5879 31.1377 70.0734 31.4028C70.5419 31.6573 70.9311 32.0344 71.1987 32.493C71.4713 32.9616 71.6117 33.4944 71.6053 34.0354C71.6117 34.5764 71.4713 35.1092 71.1987 35.5778C70.9311 36.0364 70.5419 36.4135 70.0734 36.6681C69.5882 36.9339 69.0416 37.0699 68.4873 37.0628" fill="white"/>
<path d="M74.8864 32.2217C74.7034 32.216 74.5211 32.2465 74.3502 32.3116C74.1792 32.3767 74.0231 32.475 73.8909 32.6007C73.7606 32.7221 73.6576 32.8694 73.5888 33.033C73.5199 33.1967 73.4867 33.3729 73.4913 33.5502C73.4872 33.7263 73.5207 33.9014 73.5896 34.0638C73.6585 34.2262 73.7611 34.3724 73.8909 34.4926C74.0231 34.6184 74.1792 34.7167 74.3502 34.7817C74.5211 34.8468 74.7034 34.8774 74.8864 34.8717C75.0682 34.877 75.2493 34.846 75.4188 34.7806C75.5883 34.7152 75.7428 34.6167 75.8732 34.4909C76.0016 34.3701 76.1032 34.224 76.1714 34.062C76.2396 33.9 76.2729 33.7257 76.2693 33.5502C76.2742 33.3732 76.2414 33.1972 76.1732 33.0336C76.1049 32.87 76.0027 32.7225 75.8732 32.6007C75.7427 32.4753 75.5881 32.3771 75.4186 32.312C75.2491 32.2468 75.0681 32.2161 74.8864 32.2217ZM76.1799 36.9931C76.6877 36.9746 77.1865 37.1299 77.5926 37.4331C77.9743 37.7291 78.2256 38.1604 78.2936 38.6364L76.9651 38.9841C76.9604 38.8748 76.9309 38.768 76.8787 38.6716C76.8265 38.5753 76.7529 38.4919 76.6636 38.4277C76.4555 38.2824 76.2046 38.2096 75.9503 38.2208H73.947C73.4922 38.2414 73.0454 38.0968 72.6904 37.8139C72.5346 37.6836 72.4106 37.52 72.3278 37.3354C72.2449 37.1508 72.2053 36.9499 72.2119 36.7479C72.2107 36.4645 72.2812 36.1853 72.4169 35.9359C72.5451 35.6939 72.7387 35.4922 72.976 35.3534C72.7214 35.1256 72.5192 34.8459 72.3834 34.5335C72.2476 34.2211 72.1813 33.8833 72.1891 33.5432C72.1813 33.205 72.2464 32.869 72.38 32.5578C72.5136 32.2465 72.7126 31.9671 72.9638 31.7383C73.485 31.254 74.1779 30.9934 74.8917 31.0132C75.352 31.0094 75.8066 31.1136 76.2185 31.3175C76.2844 31.0209 76.461 30.76 76.7127 30.5871C76.9884 30.4038 77.3151 30.3107 77.6469 30.3211H78.1166V31.5H77.7152C77.5541 31.4945 77.3957 31.5422 77.2648 31.6357C77.2066 31.6778 77.1583 31.732 77.1232 31.7944C77.0882 31.8569 77.0671 31.9261 77.0615 31.9974C77.419 32.4338 77.6107 32.9809 77.6031 33.5432C77.6098 33.8809 77.5434 34.2161 77.4086 34.5262C77.2738 34.8364 77.0735 35.1143 76.8214 35.3412C76.2998 35.8249 75.6072 36.0853 74.8935 36.0663C74.5238 36.0713 74.1564 36.0076 73.8103 35.8785C73.7139 35.9353 73.6343 36.0164 73.5796 36.1135C73.5248 36.2105 73.4968 36.3202 73.4983 36.4315C73.4966 36.5081 73.5127 36.5841 73.5456 36.6535C73.5784 36.7229 73.627 36.7838 73.6876 36.8314C73.8295 36.9392 74.0051 36.994 74.1836 36.9862L76.1799 36.9931Z" fill="white"/>
<path d="M79.9988 35.3289C80.1663 35.4985 80.367 35.6323 80.5885 35.722C80.8101 35.8117 81.0478 35.8554 81.287 35.8505C81.5253 35.8564 81.7623 35.813 81.9828 35.7232C82.2034 35.6334 82.4027 35.4991 82.5682 35.3289C82.7357 35.1603 82.8673 34.9599 82.9549 34.7397C83.0425 34.5195 83.0845 34.284 83.0782 34.0473C83.0848 33.8099 83.043 33.5735 82.9554 33.3524C82.8677 33.1313 82.7361 32.93 82.5682 32.7606C82.4027 32.5903 82.2034 32.4561 81.9828 32.3663C81.7623 32.2765 81.5253 32.2331 81.287 32.2389C81.0477 32.2333 80.8097 32.2767 80.5881 32.3665C80.3664 32.4562 80.1658 32.5904 79.9988 32.7606C79.828 32.9283 79.6933 33.1286 79.6029 33.3495C79.5126 33.5704 79.4684 33.8072 79.473 34.0456C79.4676 34.2835 79.5115 34.5201 79.6019 34.7405C79.6924 34.9609 79.8274 35.1606 79.9988 35.3271V35.3289ZM81.287 37.066C80.8761 37.0772 80.4672 37.006 80.0847 36.8566C79.7022 36.7072 79.3541 36.4827 79.0612 36.1966C78.7702 35.9172 78.5408 35.5811 78.3872 35.2094C78.2337 34.8377 78.1594 34.4385 78.169 34.0369C78.1605 33.6373 78.235 33.2403 78.3879 32.8705C78.5408 32.5008 78.7687 32.1662 79.0576 31.8877C79.3506 31.6015 79.6987 31.3771 80.0812 31.2277C80.4637 31.0783 80.8726 31.007 81.2835 31.0182C81.8382 31.0122 82.3851 31.1481 82.8714 31.413C83.3399 31.6675 83.7291 32.0446 83.9966 32.5032C84.2686 32.9721 84.409 33.5047 84.4033 34.0456C84.409 34.5865 84.2686 35.1191 83.9966 35.588C83.7291 36.0466 83.3399 36.4237 82.8714 36.6782C82.3854 36.9439 81.8383 37.0799 81.2835 37.073" fill="white"/>
<path d="M88.5657 32.3087H86.92V35.044C86.9118 35.154 86.9273 35.2646 86.9653 35.3683C87.0034 35.472 87.0632 35.5665 87.1408 35.6456C87.3165 35.7896 87.5408 35.8617 87.7682 35.8473C88.046 35.8423 88.3189 35.7739 88.5657 35.6473V36.8385C88.2345 37.0005 87.8693 37.0821 87.5001 37.0767C86.8867 37.0767 86.424 36.915 86.1102 36.595C85.7965 36.2751 85.6423 35.8247 85.6423 35.2491V32.3087H84.6555V31.1576H85.6423V29.6587H86.92V31.1576H88.5657V32.3087Z" fill="white"/>
<path d="M94.3058 28.9106L92.8652 30.4756H91.5156L92.6811 28.9106H94.3058ZM92.0905 35.847C92.3285 35.8528 92.5652 35.8094 92.7855 35.7196C93.0057 35.6298 93.2048 35.4955 93.3699 35.3253C93.538 35.1571 93.67 34.9568 93.758 34.7365C93.8459 34.5163 93.888 34.2806 93.8817 34.0438C93.8883 33.8061 93.8464 33.5696 93.7585 33.3485C93.6705 33.1273 93.5383 32.9261 93.3699 32.757C93.2048 32.5868 93.0057 32.4526 92.7855 32.3628C92.5652 32.273 92.3285 32.2296 92.0905 32.2354C91.8507 32.23 91.6123 32.2735 91.3901 32.3632C91.1679 32.453 90.9666 32.587 90.7988 32.757C90.6277 32.9248 90.4928 33.1255 90.4024 33.3467C90.312 33.5679 90.268 33.8051 90.273 34.0438C90.2683 34.2816 90.3125 34.5179 90.4029 34.7383C90.4933 34.9586 90.628 35.1583 90.7988 35.3253C90.9666 35.4954 91.1679 35.6294 91.3901 35.7191C91.6123 35.8088 91.8507 35.8524 92.0905 35.847ZM93.8817 31.152H95.1647V36.932H93.8817V36.1061C93.6438 36.4173 93.3344 36.6676 92.9792 36.8361C92.624 37.0046 92.2334 37.0863 91.8399 37.0746C91.3228 37.0812 90.8141 36.9445 90.3711 36.6799C89.934 36.4176 89.5781 36.041 89.3423 35.5914C89.0912 35.1153 88.9635 34.5846 88.9708 34.0473C88.9635 33.5099 89.0912 32.9793 89.3423 32.5031C89.5789 32.0541 89.9347 31.6777 90.3711 31.4146C90.8145 31.1507 91.3229 31.0141 91.8399 31.0199C92.233 31.0071 92.6235 31.0879 92.9787 31.2555C93.3339 31.4231 93.6436 31.6726 93.8817 31.9832V31.152Z" fill="white"/>
</svg>
