<svg width="24" height="24" viewBox="0 0 24 24" fill="none" xmlns="http://www.w3.org/2000/svg">
<path fill-rule="evenodd" clip-rule="evenodd" d="M2.25391 3.25049H21.7539V16.5659H8.12906L3.49407 20.5681C3.27201 20.7599 2.95853 20.8046 2.69176 20.6824C2.42498 20.5603 2.25391 20.2939 2.25391 20.0005V14.4005C2.25391 13.9863 2.58969 13.6505 3.00391 13.6505C3.41812 13.6505 3.75391 13.9863 3.75391 14.4005V18.362L7.35989 15.2482C7.49611 15.1306 7.67008 15.0659 7.85006 15.0659H20.2539V4.75049H3.75391V8.80049C3.75391 9.2147 3.41812 9.55049 3.00391 9.55049C2.58969 9.55049 2.25391 9.2147 2.25391 8.80049V3.25049Z" fill="#DD0034"/>
<ellipse cx="8" cy="10" rx="1" ry="1" fill="#DD0034"/>
<ellipse cx="12.0039" cy="10" rx="1" ry="1" fill="#DD0034"/>
<ellipse cx="16" cy="10" rx="1" ry="1" fill="#DD0034"/>
</svg>
