<svg width="32" height="32" viewBox="0 0 32 32" fill="none" xmlns="http://www.w3.org/2000/svg">
<path fill-rule="evenodd" clip-rule="evenodd" d="M4 8.58301C4 8.16879 4.33579 7.83301 4.75 7.83301H21.9167C22.3309 7.83301 22.6667 8.16879 22.6667 8.58301C22.6667 8.99722 22.3309 9.33301 21.9167 9.33301H4.75C4.33579 9.33301 4 8.99722 4 8.58301ZM4 16.583C4 16.1688 4.33579 15.833 4.75 15.833H27.25C27.6642 15.833 28 16.1688 28 16.583C28 16.9972 27.6642 17.333 27.25 17.333H4.75C4.33579 17.333 4 16.9972 4 16.583ZM4.75 23.833C4.33579 23.833 4 24.1688 4 24.583C4 24.9972 4.33579 25.333 4.75 25.333H27.25C27.6642 25.333 28 24.9972 28 24.583C28 24.1688 27.6642 23.833 27.25 23.833H4.75Z" fill="#3D3D3D"/>
</svg>
