<svg width="33" height="32" viewBox="0 0 33 32" fill="none" xmlns="http://www.w3.org/2000/svg">
<path d="M5.82451 23.7597C4.80548 22.3907 4.06608 20.8344 3.64852 19.1796C3.23096 17.5248 3.14342 15.804 3.3909 14.1154C3.63838 12.4268 4.21603 10.8035 5.09087 9.3381C5.96572 7.87273 7.12062 6.59403 8.48964 5.575C9.85866 4.55597 11.415 3.81657 13.0698 3.39901C14.7245 2.98145 16.4454 2.89391 18.134 3.14139C19.8226 3.38887 21.4459 3.96652 22.9113 4.84136C24.3766 5.71621 25.6553 6.87111 26.6744 8.24013C27.6934 9.60915 28.4328 11.1655 28.8504 12.8203C29.2679 14.475 29.3555 16.1959 29.108 17.8845C28.8605 19.5731 28.2829 21.1964 27.408 22.6618C26.5332 24.1271 25.3783 25.4058 24.0092 26.4249C22.6402 27.4439 21.0839 28.1833 19.4291 28.6009C17.7743 29.0184 16.0535 29.106 14.3649 28.8585C12.6763 28.611 11.053 28.0333 9.58761 27.1585C8.12225 26.2837 6.84354 25.1287 5.82451 23.7597L5.82451 23.7597Z" stroke="#3D3D3D" stroke-width="1.43676" stroke-linecap="round" stroke-linejoin="round"/>
<ellipse cx="16.5368" cy="24.2859" rx="0.857142" ry="0.857143" fill="#DD0034"/>
<path d="M11.6797 12.9943V12.8571C11.6797 10.1746 13.8543 8 16.5368 8H16.7594C19.319 8 21.394 10.0886 21.394 12.6482V12.6482C21.394 14.3172 20.4896 15.863 19.031 16.6743V16.6743C17.5725 17.4855 16.6681 19.0235 16.6681 20.6924V21.1429" stroke="#3D3D3D" stroke-width="1.43676" stroke-linecap="round"/>
</svg>
