<svg width="81" height="81" viewBox="0 0 81 81" fill="none" xmlns="http://www.w3.org/2000/svg">
<rect x="0.5" y="0.230225" width="80" height="80" rx="4" fill="#DD0034"/>
<path d="M58.4999 29.9444C59.4467 29.9444 60.2142 29.1769 60.2142 28.2302C60.2142 27.2834 59.4467 26.5159 58.4999 26.5159C57.5532 26.5159 56.7856 27.2834 56.7856 28.2302C56.7856 29.1769 57.5532 29.9444 58.4999 29.9444Z" fill="white"/>
<path d="M58.2977 32.4882C58.0168 32.4882 57.7473 32.6047 57.5486 32.8121C57.3499 33.0195 57.2383 33.3008 57.2383 33.5942V58.5896H23.7616V21.8707H52.1533V54.3868C52.1533 54.6801 52.2649 54.9614 52.4635 55.1689C52.6622 55.3763 52.9317 55.4928 53.2126 55.4928C53.4936 55.4928 53.7631 55.3763 53.9618 55.1689C54.1604 54.9614 54.272 54.6801 54.272 54.3868V19.6587H21.6428V60.8016H59.3571V33.5942C59.3571 33.3008 59.2455 33.0195 59.0468 32.8121C58.8481 32.6047 58.5787 32.4882 58.2977 32.4882Z" fill="white"/>
<path d="M49.0715 34.6587H38.3572V45.373H49.0715V34.6587ZM46.9286 43.2301H40.5V36.8015H46.9286V43.2301Z" fill="white"/>
<path d="M48.4285 27.373H27.8571C27.5729 27.373 27.3004 27.4859 27.0995 27.6869C26.8985 27.8878 26.7856 28.1603 26.7856 28.4445C26.7856 28.7286 26.8985 29.0012 27.0995 29.2021C27.3004 29.403 27.5729 29.5159 27.8571 29.5159H48.4285C48.7127 29.5159 48.9852 29.403 49.1861 29.2021C49.3871 29.0012 49.4999 28.7286 49.4999 28.4445C49.4999 28.1603 49.3871 27.8878 49.1861 27.6869C48.9852 27.4859 48.7127 27.373 48.4285 27.373Z" fill="white"/>
<path d="M27.8571 52.6587H48.4285C48.7127 52.6587 48.9852 52.5458 49.1861 52.3449C49.3871 52.144 49.4999 51.8715 49.4999 51.5873C49.4999 51.3031 49.3871 51.0306 49.1861 50.8297C48.9852 50.6288 48.7127 50.5159 48.4285 50.5159H27.8571C27.5729 50.5159 27.3004 50.6288 27.0995 50.8297C26.8985 51.0306 26.7856 51.3031 26.7856 51.5873C26.7856 51.8715 26.8985 52.144 27.0995 52.3449C27.3004 52.5458 27.5729 52.6587 27.8571 52.6587Z" fill="white"/>
<path d="M27.8571 37.2303H34.7142C34.9984 37.2303 35.2709 37.1174 35.4718 36.9164C35.6728 36.7155 35.7856 36.443 35.7856 36.1588C35.7856 35.8747 35.6728 35.6021 35.4718 35.4012C35.2709 35.2003 34.9984 35.0874 34.7142 35.0874H27.8571C27.5729 35.0874 27.3004 35.2003 27.0995 35.4012C26.8985 35.6021 26.7856 35.8747 26.7856 36.1588C26.7856 36.443 26.8985 36.7155 27.0995 36.9164C27.3004 37.1174 27.5729 37.2303 27.8571 37.2303Z" fill="white"/>
<path d="M27.8571 46.2303H34.7142C34.9984 46.2303 35.2709 46.1174 35.4718 45.9164C35.6728 45.7155 35.7856 45.443 35.7856 45.1588C35.7856 44.8747 35.6728 44.6021 35.4718 44.4012C35.2709 44.2003 34.9984 44.0874 34.7142 44.0874H27.8571C27.5729 44.0874 27.3004 44.2003 27.0995 44.4012C26.8985 44.6021 26.7856 44.8747 26.7856 45.1588C26.7856 45.443 26.8985 45.7155 27.0995 45.9164C27.3004 46.1174 27.5729 46.2303 27.8571 46.2303Z" fill="white"/>
</svg>
