<svg width="33" height="32" viewBox="0 0 33 32" fill="none" xmlns="http://www.w3.org/2000/svg">
<path d="M16.2992 14.1432H15.5259C15.1039 14.1432 14.7617 14.4844 14.7617 14.9053C14.7617 15.3262 15.1039 15.6674 15.5259 15.6674H16.2992C16.7213 15.6674 17.0635 15.3262 17.0635 14.9053C17.0635 14.4844 16.7213 14.1432 16.2992 14.1432Z" fill="#3D3D3D"/>
<path d="M19.7485 14.1432H18.9751C18.5531 14.1432 18.2109 14.4844 18.2109 14.9053C18.2109 15.3262 18.5531 15.6674 18.9751 15.6674H19.7485C20.1705 15.6674 20.5127 15.3262 20.5127 14.9053C20.5127 14.4844 20.1705 14.1432 19.7485 14.1432Z" fill="#3D3D3D"/>
<path d="M23.2016 14.1432H22.4283C22.0062 14.1432 21.6641 14.4844 21.6641 14.9053C21.6641 15.3262 22.0062 15.6674 22.4283 15.6674H23.2016C23.6236 15.6674 23.9658 15.3262 23.9658 14.9053C23.9658 14.4844 23.6236 14.1432 23.2016 14.1432Z" fill="#3D3D3D"/>
<path d="M16.2992 17.223H15.5259C15.1039 17.223 14.7617 17.5642 14.7617 17.985C14.7617 18.4059 15.1039 18.7471 15.5259 18.7471H16.2992C16.7213 18.7471 17.0635 18.4059 17.0635 17.985C17.0635 17.5642 16.7213 17.223 16.2992 17.223Z" fill="#3D3D3D"/>
<path d="M19.7485 17.223H18.9751C18.5531 17.223 18.2109 17.5642 18.2109 17.985C18.2109 18.4059 18.5531 18.7471 18.9751 18.7471H19.7485C20.1705 18.7471 20.5127 18.4059 20.5127 17.985C20.5127 17.5642 20.1705 17.223 19.7485 17.223Z" fill="#3D3D3D"/>
<path d="M23.2016 17.223H22.4283C22.0062 17.223 21.6641 17.5642 21.6641 17.985C21.6641 18.4059 22.0062 18.7471 22.4283 18.7471H23.2016C23.6236 18.7471 23.9658 18.4059 23.9658 17.985C23.9658 17.5642 23.6236 17.223 23.2016 17.223Z" fill="#3D3D3D"/>
<path d="M16.2992 20.3027H15.5259C15.1039 20.3027 14.7617 20.6439 14.7617 21.0648C14.7617 21.4857 15.1039 21.8269 15.5259 21.8269H16.2992C16.7213 21.8269 17.0635 21.4857 17.0635 21.0648C17.0635 20.6439 16.7213 20.3027 16.2992 20.3027Z" fill="#3D3D3D"/>
<path d="M19.7485 20.3027H18.9751C18.5531 20.3027 18.2109 20.6439 18.2109 21.0648C18.2109 21.4857 18.5531 21.8269 18.9751 21.8269H19.7485C20.1705 21.8269 20.5127 21.4857 20.5127 21.0648C20.5127 20.6439 20.1705 20.3027 19.7485 20.3027Z" fill="#3D3D3D"/>
<path d="M23.2016 20.3027H22.4283C22.0062 20.3027 21.6641 20.6439 21.6641 21.0648C21.6641 21.4857 22.0062 21.8269 22.4283 21.8269H23.2016C23.6236 21.8269 23.9658 21.4857 23.9658 21.0648C23.9658 20.6439 23.6236 20.3027 23.2016 20.3027Z" fill="#3D3D3D"/>
<path d="M23.3244 9.57153H15.5181C15.0961 9.57153 14.7539 9.91273 14.7539 10.3336C14.7539 10.7545 15.0961 11.0957 15.5181 11.0957H23.3244C23.7465 11.0957 24.0886 10.7545 24.0886 10.3336C24.0886 9.91273 23.7465 9.57153 23.3244 9.57153Z" fill="#3D3D3D"/>
<path d="M27.7148 27.9699C28.1355 27.9699 28.4765 27.6297 28.4765 27.2099C28.4765 26.7902 28.1355 26.4499 27.7148 26.4499C27.2942 26.4499 26.9531 26.7902 26.9531 27.2099C26.9531 27.6297 27.2942 27.9699 27.7148 27.9699Z" fill="#DD0034"/>
<path d="M10.8077 3.42097H3.92578V27.9924H23.181C23.6075 27.9924 23.9527 27.648 23.9527 27.2225C23.9527 26.7969 23.6075 26.4525 23.181 26.4525H11.5894V4.96088H26.9539V24.184C26.9539 24.6096 27.299 24.954 27.7255 24.954C28.152 24.954 28.4972 24.6096 28.4972 24.184V3.42097H10.8077ZM5.46912 26.4525V4.96088H10.0377V26.4525H5.46912Z" fill="#3D3D3D"/>
</svg>
