<?xml version="1.0" encoding="utf-8"?>
<!-- Generator: Adobe Illustrator 27.5.0, SVG Export Plug-In . SVG Version: 6.00 Build 0)  -->
<svg version="1.1" id="Layer_1" xmlns="http://www.w3.org/2000/svg" xmlns:xlink="http://www.w3.org/1999/xlink" x="0px" y="0px"
	 viewBox="0 0 33 32" style="enable-background:new 0 0 33 32;" xml:space="preserve">
<style type="text/css">
	.st0{fill:#FFFFFF;}
</style>
<g>
	<g>
		<path class="st0" d="M31.4,31.9c0.6,0,1.1-0.5,1.1-1.1c0-0.6-0.5-1.1-1.1-1.1c-0.6,0-1.1,0.5-1.1,1.1
			C30.2,31.4,30.7,31.9,31.4,31.9z"/>
	</g>
	<g>
		<g>
			<path class="st0" d="M26.5,32H0.4V0h31.9v26.3c0,0.6-0.5,1.1-1.1,1.1s-1.1-0.5-1.1-1.1v-24H2.6v27.5h24c0.6,0,1.1,0.5,1.1,1.1
				S27.2,32,26.5,32z"/>
		</g>
		<g>
			<path class="st0" d="M13.3,26.3c-3.1,0-5.7-2.6-5.7-5.7s2.6-5.7,5.7-5.7c0.6,0,1.1,0.5,1.1,1.1c0,0.6-0.5,1.1-1.1,1.1
				c-1.9,0-3.5,1.6-3.5,3.5s1.6,3.5,3.5,3.5s3.5-1.6,3.5-3.5V6.8c0-0.6,0.4-1,1-1.1c0.5-0.1,1.1,0.3,1.2,0.8c0,0.2,1,3.9,5,3.9
				c0.6,0,1.1,0.5,1.1,1.1s-0.5,1.1-1.1,1.1c-2.2,0-3.8-0.8-5-1.9v9.8C19,23.8,16.4,26.3,13.3,26.3z"/>
		</g>
	</g>
</g>
</svg>
