<svg width="32" height="32" viewBox="0 0 32 32" fill="none" xmlns="http://www.w3.org/2000/svg">
<circle cx="16" cy="12" r="3.25" stroke="#3D3D3D" stroke-width="1.5"/>
<path d="M22.6666 25.3337C22.6666 23.5655 21.9642 21.8699 20.714 20.6196C19.4637 19.3694 17.768 18.667 15.9999 18.667C14.2318 18.667 12.5361 19.3694 11.2859 20.6196C10.0356 21.8699 9.33325 23.5655 9.33325 25.3337" stroke="#3D3D3D" stroke-width="1.5" stroke-linecap="round" stroke-linejoin="round"/>
<path d="M8.08411 25.782C6.79957 24.7424 5.73236 23.4601 4.9434 22.0081C4.15444 20.5562 3.6592 18.963 3.48594 17.3197C3.31268 15.6763 3.46481 14.0149 3.93362 12.4303C4.40244 10.8458 5.17877 9.36906 6.21829 8.08452C7.25781 6.79998 8.54015 5.73276 9.99212 4.94381C11.4441 4.15485 13.0372 3.65961 14.6806 3.48635C16.3239 3.31309 17.9853 3.46521 19.5699 3.93403C21.1545 4.40285 22.6312 5.17918 23.9157 6.21869C25.2003 7.25821 26.2675 8.54056 27.0564 9.99252C27.8454 11.4445 28.3406 13.0376 28.5139 14.681C28.6872 16.3243 28.535 17.9857 28.0662 19.5703C27.5974 21.1549 26.8211 22.6316 25.7815 23.9161C24.742 25.2007 23.4597 26.2679 22.0077 27.0568C20.5558 27.8458 18.9626 28.341 17.3193 28.5143C15.6759 28.6876 14.0145 28.5354 12.4299 28.0666C10.8454 27.5978 9.36865 26.8215 8.08411 25.782L8.08411 25.782Z" stroke="#3D3D3D" stroke-width="1.5" stroke-linecap="round"/>
</svg>
