<svg width="33" height="32" viewBox="0 0 33 32" fill="none" xmlns="http://www.w3.org/2000/svg">
<path fill-rule="evenodd" clip-rule="evenodd" d="M11.6141 25.7717C14.1121 27.1847 17.0401 27.6373 19.8481 27.0445C22.6562 26.4517 25.1514 24.8543 26.8651 22.5521C28.5788 20.2499 29.3933 17.4014 29.1555 14.5413C28.9178 11.6812 27.6443 9.00618 25.574 7.01854C23.5037 5.0309 20.7791 3.86732 17.9116 3.74625C15.0442 3.62518 12.2312 4.55495 10.0007 6.36099C7.77027 8.16704 6.27575 10.7251 5.79777 13.555C5.31979 16.3849 5.89123 19.292 7.4048 21.7304C7.61403 22.0675 7.51039 22.5104 7.1733 22.7196C6.83621 22.9289 6.39332 22.8252 6.18408 22.4881C4.48594 19.7523 3.84481 16.4908 4.38108 13.3158C4.91735 10.1408 6.59412 7.27068 9.0966 5.24438C11.5991 3.21809 14.7551 2.17494 17.9722 2.31077C21.1894 2.44661 24.2463 3.75209 26.569 5.98213C28.8918 8.21216 30.3206 11.2134 30.5874 14.4223C30.8541 17.6312 29.9403 20.8271 28.0176 23.41C26.0949 25.9929 23.2955 27.7852 20.1449 28.4503C16.9944 29.1154 13.7094 28.6076 10.9067 27.0222C10.5614 26.8269 10.4398 26.3886 10.6351 26.0433C10.8305 25.6979 11.2688 25.5764 11.6141 25.7717Z" fill="#3D3D3D"/>
<path fill-rule="evenodd" clip-rule="evenodd" d="M11.4777 8.60263C11.7065 8.50403 11.9338 8.47705 12.1236 8.47705H13.0622C13.5847 8.47705 14.0559 8.79155 14.2563 9.27411L15.5179 12.3112C15.6603 12.654 15.653 13.0542 15.4689 13.3998C15.2386 13.8324 15.0052 14.1973 14.8007 14.4843C14.6371 14.7139 14.6443 14.9115 14.6905 15.0026C15.6464 16.8906 17.3206 17.8739 18.5236 18.2815C18.8536 18.3933 19.1365 18.3045 19.2977 18.1101C19.4747 17.8966 19.6536 17.649 19.8073 17.4201C20.1647 16.8879 20.8782 16.6614 21.4892 16.9679L24.3175 18.3864C24.7448 18.6007 25.0561 19.0597 25.0142 19.5977C24.9609 20.2812 24.791 20.9337 24.6923 21.2308C24.6774 21.2756 24.6582 21.3188 24.6348 21.3599C23.9929 22.4866 22.822 22.9282 21.7842 23.071C20.7377 23.2149 19.6774 23.0806 19.0062 22.9123C18.9972 22.91 18.9882 22.9075 18.9792 22.9049C12.878 21.1199 10.0812 16.0099 9.43219 13.623C9.048 12.2099 9.23626 11.0708 9.71502 10.2104C10.1831 9.36934 10.8955 8.85349 11.4777 8.60263ZM12.1236 9.91381C12.0689 9.91381 12.0475 9.92166 12.0462 9.92212C12.0462 9.92215 12.0462 9.92215 12.0462 9.92212C11.7059 10.0688 11.2601 10.3886 10.9705 10.909C10.6916 11.4102 10.5229 12.1584 10.8186 13.246C11.3766 15.2983 13.8886 19.9121 19.3689 21.5219C19.9062 21.6549 20.7702 21.7601 21.5885 21.6476C22.3927 21.537 23.017 21.2395 23.351 20.7079C23.4184 20.4854 23.5225 20.0633 23.5695 19.6186L20.945 18.3023C20.7854 18.5359 20.5982 18.7925 20.4037 19.0272C19.8031 19.7515 18.8628 19.9134 18.0625 19.6422C16.6207 19.1537 14.5832 17.9715 13.4086 15.6516C13.0454 14.9341 13.2683 14.159 13.6306 13.6505C13.7908 13.4257 13.9764 13.1376 14.1629 12.7947L12.9663 9.91381H12.1236Z" fill="#3D3D3D"/>
<path d="M25.8929 8.14716C26.9208 8.14716 27.7541 7.31386 27.7541 6.28592C27.7541 5.25799 26.9208 4.42469 25.8929 4.42469C24.8649 4.42469 24.0316 5.25799 24.0316 6.28592C24.0316 7.31386 24.8649 8.14716 25.8929 8.14716Z" fill="#DD0034" stroke="white" stroke-width="1.43676"/>
<path fill-rule="evenodd" clip-rule="evenodd" d="M7.05702 21.4609C7.42423 21.6111 7.60014 22.0306 7.44991 22.3978L5.4201 27.3596L11.1889 25.7443C11.571 25.6373 11.9674 25.8603 12.0744 26.2424C12.1814 26.6244 11.9584 27.0209 11.5763 27.1278L4.39256 29.1393C4.12831 29.2133 3.845 29.1303 3.66246 28.9254C3.47993 28.7205 3.43007 28.4295 3.53397 28.1755L6.12013 21.8538C6.27035 21.4866 6.68981 21.3107 7.05702 21.4609Z" fill="#3D3D3D"/>
</svg>
