<svg width="33" height="32" viewBox="0 0 33 32" fill="none" xmlns="http://www.w3.org/2000/svg">
<g clip-path="url(#clip0_4284_12432)">
<g clip-path="url(#clip1_4284_12432)">
<path d="M26.2894 29.6173H2.56722V2.25961H30.048V24.3117C30.048 24.9357 30.5538 25.4415 31.1778 25.4415C31.8018 25.4415 32.3076 24.9357 32.3076 24.3117V0H0.307617V31.8769H26.2894C26.9134 31.8769 27.4192 31.3711 27.4192 30.7471C27.4192 30.1231 26.9134 29.6173 26.2894 29.6173Z" fill="white"/>
<path d="M31.1779 31.8783C31.8019 31.8783 32.3077 31.3724 32.3077 30.7485C32.3077 30.1245 31.8019 29.6187 31.1779 29.6187C30.5539 29.6187 30.0481 30.1245 30.0481 30.7485C30.0481 31.3724 30.5539 31.8783 31.1779 31.8783Z" fill="white"/>
<path d="M10.6027 25.1091C10.3947 25.1091 10.1867 25.0476 10.0021 24.9295C9.65383 24.703 9.44092 24.2981 9.44092 23.8612V8.06857C9.44092 7.62798 9.65876 7.21938 10.012 6.99538C10.3652 6.76893 10.8021 6.76278 11.1627 6.97692L24.8286 15.0603C25.2028 15.2818 25.4341 15.7064 25.4305 16.1655C25.4268 16.6246 25.188 17.043 24.8089 17.2559L11.143 24.9639C10.9732 25.0599 10.7873 25.1079 10.6027 25.1079V25.1091ZM11.7645 10.1817V21.7973L21.8171 16.1273L11.7645 10.1817Z" fill="white"/>
</g>
</g>
<defs>
<clipPath id="clip0_4284_12432">
<rect width="32" height="32" fill="white" transform="translate(0.307617)"/>
</clipPath>
<clipPath id="clip1_4284_12432">
<rect width="32" height="31.8782" fill="white" transform="translate(0.307617)"/>
</clipPath>
</defs>
</svg>
